<?xml version="1.0" encoding="UTF-8"?>
<svg width="32px" height="32px" viewBox="0 0 32 32" version="1.1" xmlns="http://www.w3.org/2000/svg" xmlns:xlink="http://www.w3.org/1999/xlink">
    <title>ico 32 / bodybuilding</title>
    <g id="ico-32-/-bodybuilding" stroke="none" stroke-width="1" fill="none" fill-rule="evenodd">
        <g id="bodybuilding" transform="translate(4, 1)" fill="#D70000" fill-rule="nonzero">
            <path d="M3.5,30 C3.3,30 3.2,29.9 3.1,29.8 C1.6,27.3 0,24.2 0,21.5 C0,20.3 0.7,18.8 1.3,17.2 C2.1,15.4 3,13.3 3,11.5 C3,11.2 3.2,11 3.5,11 C3.8,11 4,11.2 4,11.5 C4,13.5 3.1,15.7 2.3,17.6 C1.6,19.1 1,20.5 1,21.5 C1,23.8 2.5,26.8 3.7,28.9 C5,28.5 5.4,28.6 6.3,28.7 C7.1,28.8 8.2,29 11,29 C14.2,29 16.2,28.7 18,28.5 C19.6,28.3 21.2,28 23.5,28 C23.8,28 24,28.2 24,28.5 C24,28.8 23.8,29 23.5,29 C21.3,29 19.8,29.2 18.2,29.4 C16.3,29.7 14.3,30 11,30 C8.2,30 6.9,29.8 6.2,29.7 C5.4,29.6 5.2,29.5 3.6,30 C3.6,30 3.5,30 3.5,30 Z" id="Path"></path>
            <path d="M7.5,22 C7.4,22 7.2,22 7.1,21.9 C6.9,21.7 6.9,21.4 7.1,21.2 C7.1,21.2 7.1,21.2 7.2,21.1 C7.8,20.5 8.1,19.3 8,17.9 C7.9,16.6 7.6,15.4 7.1,14.9 C6.9,14.7 6.9,14.4 7.1,14.2 C7.3,14 7.6,14 7.8,14.2 C8.7,15.1 9.2,17.8 8.8,19.9 C10.4,19 12.8,18.5 15.9,20.4 C17.4,18.8 20.6,16.8 23.8,19.2 C24,19.4 24.1,19.7 23.9,19.9 C23.7,20.1 23.4,20.2 23.2,20 C19.7,17.5 16.5,21.3 16.4,21.4 C16.2,21.6 15.9,21.6 15.7,21.5 C11.6,18.6 8.8,21 7.9,21.8 C7.9,21.8 7.8,21.9 7.8,21.9 C7.8,22 7.6,22 7.5,22 Z" id="Path"></path>
            <path d="M9.5,7 C9.2,7 9,6.8 9,6.5 C9,6.2 9.2,6 9.5,6 L9.5,6 C9.8,6 10,6.2 10,6.5 C10,6.8 9.8,7 9.5,7 Z" id="Path"></path>
            <path d="M9.5,9 C8.1,9 7,7.9 7,6.5 C7,5.1 8.1,4 9.5,4 C10.9,4 12,5.1 12,6.5 C12,7.9 10.9,9 9.5,9 Z M9.5,5 C8.7,5 8,5.7 8,6.5 C8,7.3 8.7,8 9.5,8 C10.3,8 11,7.3 11,6.5 C11,5.7 10.3,5 9.5,5 Z" id="Shape"></path>
            <path d="M9.5,13 C5.9,13 3,10.1 3,6.5 C3,2.9 5.9,0 9.5,0 C13.1,0 16,2.9 16,6.5 C16,10.1 13.1,13 9.5,13 Z M9.5,1 C6.5,1 4,3.5 4,6.5 C4,9.5 6.5,12 9.5,12 C12.5,12 15,9.5 15,6.5 C15,3.5 12.5,1 9.5,1 Z" id="Shape"></path>
        </g>
    </g>
</svg>