<?xml version="1.0" encoding="UTF-8"?>
<svg width="32px" height="32px" viewBox="0 0 32 32" version="1.1" xmlns="http://www.w3.org/2000/svg" xmlns:xlink="http://www.w3.org/1999/xlink">
    <title>ico 32 / calendar</title>
    <g id="ico-32-/-calendar" stroke="none" stroke-width="1" fill="none" fill-rule="evenodd">
        <g id="calendar" transform="translate(1, 3)" fill="#000000" fill-rule="nonzero">
            <path d="M26.979,2.999 L25,2.999 L25,2 C25,0.897 24.103,0 23,0 C21.897,0 21,0.897 21,2 L21,3 L9,3 L9,2 C9,0.897 8.103,0 7,0 C5.897,0 5,0.897 5,2 L5,2.999 L3.022,2.999 C1.356,2.999 0.001,4.37 0.001,6.055 L0.001,9.495 C0.001,9.497 0,9.498 0,9.5 C0,9.502 0.001,9.503 0.001,9.505 L0.001,23.944 C0.001,25.629 1.356,27 3.022,27 L26.979,27 C28.645,27 30,25.629 30,23.944 L30,6.055 C30,4.37 28.645,2.999 26.979,2.999 Z M22,2 C22,1.449 22.448,1 23,1 C23.552,1 24,1.449 24,2 L24,5 C24,5.551 23.552,6 23,6 C22.448,6 22,5.551 22,5 L22,2 Z M6,3.504 C6,3.502 6.001,3.501 6.001,3.499 C6.001,3.497 6,3.496 6,3.494 L6,2 C6,1.449 6.448,1 7,1 C7.552,1 8,1.449 8,2 L8,5 C8,5.551 7.552,6 7,6 C6.448,6 6,5.551 6,5 L6,3.504 Z M29,23.944 C29,25.078 28.093,26 26.979,26 L3.022,26 C1.908,26 1.001,25.077 1.001,23.944 L1.001,10 L29,10 L29,23.944 Z M29,9 L1.001,9 L1.001,6.055 C1.001,4.921 1.908,3.999 3.022,3.999 L5,3.999 L5,5 C5,6.103 5.897,7 7,7 C8.103,7 9,6.103 9,5 L9,4 L21,4 L21,5 C21,6.103 21.897,7 23,7 C24.103,7 25,6.103 25,5 L25,3.999 L26.979,3.999 C28.093,3.999 29,4.922 29,6.055 L29,9 Z M14.63,22.836 C14.725,22.94 14.859,23 15,23 C15.141,23 15.275,22.94 15.372,22.837 C15.489,22.708 18.245,19.672 19.143,18.573 C19.704,17.887 20.001,17.096 20.001,16.286 C20.001,14.474 18.636,13 16.957,13 C16.233,13 15.545,13.275 15.001,13.769 C14.457,13.275 13.769,13 13.045,13 C11.366,13 10.001,14.474 10.001,16.286 C10.001,17.096 10.297,17.886 10.859,18.572 C11.757,19.671 14.513,22.708 14.63,22.836 Z M13.044,14 C13.644,14 14.212,14.295 14.601,14.809 C14.791,15.058 15.209,15.058 15.398,14.809 C15.788,14.295 16.356,14 16.956,14 C18.083,14 19,15.026 19,16.286 C19,17.014 18.656,17.586 18.368,17.939 C17.678,18.782 15.801,20.868 15,21.755 C14.199,20.869 12.322,18.782 11.632,17.939 C11.344,17.587 11,17.014 11,16.286 C11,15.025 11.917,14 13.044,14 Z" id="Shape"></path>
        </g>
    </g>
</svg>