<?xml version="1.0" encoding="UTF-8"?>
<svg width="32px" height="32px" viewBox="0 0 32 32" version="1.1" xmlns="http://www.w3.org/2000/svg" xmlns:xlink="http://www.w3.org/1999/xlink">
    <title>ico 32 / darts</title>
    <g id="ico-32-/-darts" stroke="none" stroke-width="1" fill="none" fill-rule="evenodd">
        <g id="darts" transform="translate(1, 1)" fill="#D70000" fill-rule="nonzero">
            <path d="M19.95,10.4 C19.85,10.4 19.85,10.4 19.95,10.4 C19.55,10.3 19.45,10.1 19.45,9.8 C19.95,6.7 24.35,1.9 26.75,1.2 C27.65,0.9 28.15,1.2 28.45,1.5 C28.65,1.7 28.65,2 28.45,2.2 C28.25,2.4 27.95,2.4 27.75,2.2 C27.55,2 27.25,2 27.05,2.1 C24.95,2.8 20.95,7.3 20.45,10 C20.35,10.2 20.15,10.4 19.95,10.4 Z" id="Path"></path>
            <path d="M0.55,30 C0.45,30 0.25,30 0.15,29.9 C-0.05,29.7 -0.05,29.4 0.15,29.2 L6.55,22.8 C6.75,21.4 8.05,16.3 10.35,16 L18.75,9.1 C18.95,8.9 19.25,9 19.45,9.2 C19.65,9.4 19.55,9.7 19.35,9.9 L10.85,16.9 C10.75,17 10.65,17 10.55,17 C9.15,17 7.55,21.8 7.55,23 C7.55,23.1 7.45,23.3 7.45,23.4 L0.95,29.9 C0.85,30 0.65,30 0.55,30 Z" id="Path"></path>
            <path d="M19.25,9.8 C19.05,9.8 18.85,9.7 18.75,9.5 C17.65,6.6 17.75,3.3 18.95,1.5 C19.65,0.5 20.65,0 21.75,0 C23.05,0 24.05,0.4 24.55,1.1 C25.35,2 25.05,3.1 25.05,3.1 C24.95,3.4 24.75,3.5 24.45,3.4 C24.15,3.3 24.05,3.1 24.15,2.8 C24.15,2.8 24.35,2.1 23.95,1.6 C23.65,1.2 22.95,0.9 21.95,0.9 C21.15,0.9 20.45,1.2 20.05,1.9 C19.05,3.4 18.95,6.3 19.95,9 C20.05,9.3 19.95,9.5 19.65,9.6 C19.45,9.7 19.35,9.8 19.25,9.8 Z" id="Path"></path>
            <path d="M19.95,10.4 C19.75,10.4 19.55,10.2 19.45,10 C19.45,9.7 19.55,9.5 19.85,9.4 C22.55,8.9 27.05,4.9 27.75,2.7 C27.85,2.5 27.85,2.2 27.75,2.1 C27.55,1.9 27.55,1.6 27.75,1.4 C27.95,1.2 28.25,1.2 28.45,1.4 C28.75,1.7 28.95,2.2 28.75,3 C27.95,5.4 23.15,9.8 19.95,10.4 C19.95,10.4 19.95,10.4 19.95,10.4 Z" id="Path"></path>
            <path d="M7.05,23.5 C6.75,23.5 6.55,23.3 6.55,23 C6.55,22.7 6.75,22.5 7.05,22.5 C8.25,22.5 13.05,20.9 13.05,19.5 C13.05,19.4 13.05,19.3 13.15,19.2 L20.15,10.2 C20.35,10 20.65,9.9 20.85,10.1 C21.05,10.3 21.15,10.6 20.95,10.8 L14.05,19.7 C13.75,22.1 8.05,23.5 7.05,23.5 Z" id="Path"></path>
            <path d="M24.95,12 C23.35,12 21.65,11.6 20.35,11 C20.15,10.9 19.95,10.6 20.15,10.3 C20.25,10.1 20.55,9.9 20.85,10.1 C22.85,11.1 26.05,11.4 27.85,10.4 C28.65,9.8 29.05,9 29.05,8 C29.05,7.3 28.85,6.7 28.45,6.4 C27.85,5.8 26.65,6 26.65,6 C26.35,6 26.15,5.9 26.05,5.6 C26.05,5.3 26.15,5.1 26.45,5 C26.55,5 28.05,4.7 29.15,5.6 C29.75,6.2 30.05,7 30.05,8 C30.05,9.4 29.45,10.5 28.35,11.1 C27.35,11.7 26.15,12 24.95,12 Z" id="Path"></path>
        </g>
    </g>
</svg>