<?xml version="1.0" encoding="UTF-8"?>
<svg width="55px" height="25px" viewBox="0 0 55 25" version="1.1" xmlns="http://www.w3.org/2000/svg" xmlns:xlink="http://www.w3.org/1999/xlink">
    <title>Group</title>
    <g id="🚂-Playground" stroke="none" stroke-width="1" fill="none" fill-rule="evenodd">
        <g id="Desktop" transform="translate(-469, -2810)">
            <g id="Group-21" transform="translate(0, 2405)">
                <g id="Group" transform="translate(469, 405)">
                    <g id="noun-falcon-2183195" fill="#D70000" fill-rule="nonzero">
                        <path d="M19.7312402,20.4775204 L23.8898456,15.6083366 C23.2547971,15.7280769 22.5988335,15.7830908 21.9258543,15.7483024 C19.9064609,15.6439183 18.0877104,14.8239652 16.6923255,13.5420506 C18.3801163,12.9279659 19.9155764,12.0335563 21.258395,10.9215764 C19.1650645,12.044906 16.7904694,12.6969821 14.2666834,12.7378379 C13.5976036,12.7487589 12.9388952,12.7115441 12.2908419,12.6383272 C9.34926083,12.0864794 6.65886322,10.8321106 4.38474142,9.05509673 C4.68898737,9.13235955 4.9956135,9.20355298 5.30776971,9.26261177 C7.95937568,9.76704139 10.5773555,9.55103479 12.9737267,8.75454734 C10.6256678,9.0368813 8.18017404,8.77598335 5.80952891,7.8896925 C3.66484761,7.08786158 1.7990002,5.85213275 0.265869583,4.3194065 C0.174876351,4.14546418 0.0850620611,3.97072448 0,3.79273313 L25.1669615,3.79313762 C25.67419,1.88906103 25.4158154,0.074835481 27.5,0 C29.5841846,0.074835481 29.32581,1.88906103 29.8330385,3.79313762 L55,3.79273313 C54.9149379,3.97072448 54.8251236,4.14546418 54.7341304,4.3194065 C53.2009998,5.85213275 51.3351524,7.08786158 49.1904711,7.8896925 C46.819826,8.77598335 44.3743322,9.0368813 42.0262733,8.75454734 C44.4226445,9.55103479 47.0406243,9.76704139 49.6922303,9.26261177 C50.0043865,9.20355298 50.3110126,9.13235955 50.6152586,9.05509673 C48.3411368,10.8321106 45.6507392,12.0864794 42.7091581,12.6383272 C42.0611048,12.7115441 41.4023964,12.7487589 40.7333166,12.7378379 C38.2095306,12.6969821 35.8349355,12.044906 33.741605,10.9215764 C35.0844236,12.0335563 36.6198837,12.9279659 38.3076745,13.5420506 C36.9122896,14.8239652 35.0935391,15.6439183 33.0741457,15.7483024 C32.4011665,15.7830908 31.7452029,15.7280769 31.1101544,15.6083366 L35.2687598,20.4775204 L27.5,25 L19.7312402,20.4775204 Z" id="Combined-Shape"></path>
                    </g>
                    <g id="noun-falcon-2183195-copy" transform="translate(42, 12.5) scale(-1, 1) translate(-42, -12.5)translate(28, 0)"></g>
                </g>
            </g>
        </g>
    </g>
</svg>