<?xml version="1.0" encoding="UTF-8"?>
<svg width="32px" height="32px" viewBox="0 0 32 32" version="1.1" xmlns="http://www.w3.org/2000/svg" xmlns:xlink="http://www.w3.org/1999/xlink">
    <title>ico 32 / heart-beat</title>
    <g id="ico-32-/-heart-beat" stroke="none" stroke-width="1" fill="none" fill-rule="evenodd">
        <g id="heart-beat" transform="translate(1, 3)" fill="#000000" fill-rule="nonzero">
            <path d="M14.5,20 C14.3,20 14.1,19.9 14,19.7 L9.3,7.5 L4.8,12.8 C4.8,12.9 4.6,13 4.5,13 L0.5,13 C0.2,13 0,12.8 0,12.5 C0,12.2 0.2,12 0.5,12 L4.3,12 L9.2,6.2 C9.2,6 9.4,6 9.6,6 C9.8,6 9.9,6.1 10,6.3 L14.3,17.6 L15,13.4 C15,13.2 15.2,13 15.5,13 L16.2,13 L19.1,6.3 C19.1,6.1 19.3,6 19.5,6 C19.7,6 19.9,6.1 20,6.3 L24.5,17.9 L26.1,12.3 C26.2,12.1 26.4,11.9 26.6,11.9 L28.6,11.9 C28.9,11.9 29.1,12.1 29.1,12.4 C29.1,12.7 28.8,13 28.5,13 L26.9,13 L25,19.6 C24.9,19.8 24.7,20 24.5,20 C24.3,20 24.1,19.9 24,19.7 L19.5,7.8 L17,13.7 C16.9,13.9 16.7,14 16.5,14 L15.9,14 L15,19.6 C15,19.8 14.8,20 14.5,20 C14.5,20 14.5,20 14.5,20 Z" id="Path"></path>
            <g id="Group">
                <path d="M27.5,11 C27.4,11 27.3,11 27.3,10.9 C27.1,10.8 27,10.5 27.1,10.2 C27.5,9.3 28,8 28,6.9 C28,3.5 25.1,0.9 21.5,0.9 C18,0.9 15,3.9 15,7.4 C15,7.7 14.8,7.9 14.5,7.9 C14.2,7.9 14,7.7 14,7.4 C14,4 11,1 7.5,1 C3.9,1 1,3.6 1,7 C1,8.1 1,9 1.4,9.8 C1.5,10 1.4,10.3 1.2,10.5 C1,10.6 0.7,10.5 0.5,10.3 C0,9.1 0,8.1 0,7 C0,3.1 3.3,0 7.5,0 C10.6,0 13.4,2.1 14.5,4.9 C15.6,2 18.4,0 21.5,0 C25.7,0 29,3.1 29,7 C29,8.2 28.5,9.7 27.9,10.7 C27.9,10.9 27.7,11 27.5,11 Z" id="Path"></path>
                <path d="M14.5,26 C14.4,26 14.2,25.9 14.1,25.8 L5.1,15.8 C4.9,15.6 4.9,15.3 5.1,15.1 C5.3,14.9 5.6,14.9 5.8,15.1 L14.4,24.7 L21,17.1 C21.2,16.9 21.5,16.9 21.7,17.1 C21.9,17.3 21.9,17.6 21.7,17.8 L14.7,25.8 C14.8,25.9 14.6,26 14.5,26 Z" id="Path"></path>
            </g>
        </g>
    </g>
</svg>