<?xml version="1.0" encoding="UTF-8"?>
<svg width="32px" height="32px" viewBox="0 0 32 32" version="1.1" xmlns="http://www.w3.org/2000/svg" xmlns:xlink="http://www.w3.org/1999/xlink">
    <title>ico 32 / hokey</title>
    <g id="ico-32-/-hokey" stroke="none" stroke-width="1" fill="none" fill-rule="evenodd">
        <g id="hokey" transform="translate(4, 1)" fill="#D70000" fill-rule="nonzero">
            <path d="M11.6,30 L5.2,30 C4.4,30 3.8,29.5 3.5,28.8 L3.5,28.8 L3.1,27.5 C2.9,27 3,26.3 3.4,25.8 C3.8,25.3 4.3,25 4.8,25 L10.5,25 C11.3,25 12.1,24.5 12.4,23.7 L21,0.3 C21.1,0.1 21.4,0 21.6,0 L23.6,0.5 C23.7,0.5 23.9,0.6 23.9,0.7 C24,0.9 24,1 24,1.2 L14.5,28 C14,29.2 12.9,30 11.6,30 Z M4.4,28.5 C4.6,28.8 4.8,29 5.2,29 L11.7,29 C12.5,29 13.3,28.5 13.6,27.7 L22.9,1.4 L21.9,1.1 L13.4,24.1 C13,25.3 11.8,26 10.6,26 L4.8,26 C4.6,26 4.4,26.1 4.2,26.4 C4,26.7 3.9,27 4,27.2 L4.4,28.5 Z" id="Shape"></path>
            <path d="M5,20 C2.6,20 0,19.4 0,18 C0,16.6 2.6,16 5,16 C7.4,16 10,16.6 10,18 C10,19.4 7.4,20 5,20 Z M5,17 C2.4,17 1,17.7 1,18 C1,18.3 2.4,19 5,19 C7.6,19 9,18.3 9,18 C9,17.7 7.6,17 5,17 Z" id="Shape"></path>
            <path d="M5,22 C2.6,22 0,21.4 0,20 L0,18 C0,17.7 0.2,17.5 0.5,17.5 C0.8,17.5 1,17.7 1,18 L1,20 C1,20.3 2.4,21 5,21 C7.6,21 9,20.3 9,20 L9,18 C9,17.7 9.2,17.5 9.5,17.5 C9.8,17.5 10,17.7 10,18 L10,20 C10,21.4 7.4,22 5,22 Z" id="Path"></path>
        </g>
    </g>
</svg>