<?xml version="1.0" encoding="UTF-8"?>
<svg width="32px" height="32px" viewBox="0 0 32 32" version="1.1" xmlns="http://www.w3.org/2000/svg" xmlns:xlink="http://www.w3.org/1999/xlink">
    <title>ico 32 / hsport-flusk</title>
    <g id="ico-32-/-hsport-flusk" stroke="none" stroke-width="1" fill="none" fill-rule="evenodd">
        <g id="sport-flusk" transform="translate(9, 1)" fill="#D70000" fill-rule="nonzero">
            <path d="M7.5,3 C7.2,3 7,2.8 7,2.5 L7,1.5 C7,1.2 6.8,1 6.5,1 C6.2,1 6,1.2 6,1.5 L6,2.5 C6,2.8 5.8,3 5.5,3 C5.2,3 5,2.8 5,2.5 L5,1.5 C5,0.7 5.7,0 6.5,0 C7.3,0 8,0.7 8,1.5 L8,2.5 C8,2.8 7.8,3 7.5,3 Z" id="Path"></path>
            <path d="M9.5,7 C9.2,7 9,6.8 9,6.5 L9,3 L4,3 L4,6.5 C4,6.8 3.8,7 3.5,7 C3.2,7 3,6.8 3,6.5 L3,2.5 C3,2.2 3.2,2 3.5,2 L9.5,2 C9.8,2 10,2.2 10,2.5 L10,6.5 C10,6.8 9.8,7 9.5,7 Z" id="Path"></path>
            <path d="M10.5,6 L9.5,6 C9.2,6 9,5.8 9,5.5 C9,5.2 9.2,5 9.5,5 L10.5,5 C11.3,5 12,4.3 12,3.5 C12,2.7 11.3,2 10.5,2 L7.5,2 C7.2,2 7,1.8 7,1.5 C7,1.2 7.2,1 7.5,1 L10.5,1 C11.9,1 13,2.1 13,3.5 C13,4.9 11.9,6 10.5,6 Z" id="Path"></path>
            <path d="M9,30 L4,30 C1.8,30 0,28 0,25.5 L0,19 C0,18.8 0.1,18.7 0.2,18.6 C0.7,18.2 1,17.6 1,17 C1,16.4 0.7,15.8 0.2,15.4 C0.1,15.3 0,15.2 0,15 L0,10.5 C0,8 1.8,6 4,6 L9.5,6 C11.6,6 13,7.8 13,10.5 L13,15 C13,15.2 12.9,15.3 12.8,15.4 C12.3,15.8 12,16.4 12,17 C12,17.6 12.3,18.2 12.8,18.6 C12.9,18.7 13,18.8 13,19 L13,25.5 C13,28 11.2,30 9,30 Z M1,19.2 L1,25.5 C1,27.2 2.1,29 4,29 L9,29 C10.9,29 12,27.2 12,25.5 L12,19.2 C11.4,18.6 11,17.8 11,17 C11,16.2 11.4,15.3 12,14.8 L12,10.5 C12,8.8 11.3,7 9.5,7 L4,7 C2.1,7 1,8.8 1,10.5 L1,14.8 C1.6,15.4 2,16.2 2,17 C2,17.8 1.6,18.7 1,19.2 Z" id="Shape"></path>
            <path d="M4,28 C2.8,28 2,26.7 2,25.5 L2,19.8 C2,19.7 2,19.6 2.1,19.5 C2.7,18.8 3,17.9 3,17 C3,16.1 2.7,15.2 2.1,14.5 C2,14.4 2,14.3 2,14.2 L2,10.5 C2,9.3 2.8,8 4,8 C4.3,8 4.5,8.2 4.5,8.5 C4.5,8.8 4.3,9 4,9 C3.4,9 3,9.8 3,10.5 L3,14 C3.7,14.9 4,15.9 4,17 C4,18.1 3.7,19.1 3,20 L3,25.5 C3,26.2 3.4,27 4,27 C4.3,27 4.5,27.2 4.5,27.5 C4.5,27.8 4.3,28 4,28 Z" id="Path"></path>
        </g>
    </g>
</svg>