<?xml version="1.0" encoding="utf-8"?>
<!-- Generator: Adobe Illustrator 16.0.3, SVG Export Plug-In . SVG Version: 6.00 Build 0)  -->
<!DOCTYPE svg PUBLIC "-//W3C//DTD SVG 1.1//EN" "http://www.w3.org/Graphics/SVG/1.1/DTD/svg11.dtd">
<svg fill="#d70000" version="1.1" xmlns="http://www.w3.org/2000/svg" xmlns:xlink="http://www.w3.org/1999/xlink" x="0px" y="0px" width="64px"
	 height="76px" viewBox="0 0 600 499" enable-background="new 0 0 600 499" xml:space="preserve">
<g id="bg-white">
</g>
<g id="icons">
	<path d="M392.476,312.215l-44.807-118.284c-0.033-0.087-0.081-0.165-0.123-0.247c-0.324-1.796-1.361-3.498-2.876-4.457
		l-29.211-18.465l-6.526-14.361c-0.711-1.561-2.472-2.694-4.186-2.694H260.94c-0.693,0-1.393,0.192-2.029,0.518
		c-0.042,0.007-0.085,0.006-0.126,0.016c-0.799,0.189-1.395,0.775-1.642,1.499c-0.146,0.211-0.283,0.43-0.389,0.663l-6.527,14.358
		l-29.206,18.464c-1.507,0.951-2.539,2.635-2.868,4.434c-0.048,0.088-0.1,0.173-0.135,0.27l-44.822,118.325
		c-0.99,2.779,0.464,5.846,3.246,6.84l32.672,11.625c0.587,0.209,1.193,0.313,1.799,0.313c0.784,0,1.563-0.174,2.294-0.521
		c1.29-0.615,2.263-1.693,2.744-3.041l21.206-59.598c1.483,2.851,3.925,6.513,7.428,8.679l-0.011,9.875l-4.398,5.677
		c-0.542,0.643-3.121,4.064-3.749,11.605c-0.486,5.828-2.007,19.861-2.201,21.656c-0.137,0.605-0.091,1.354,0.34,2.102
		c0.92,1.594,3.356,5.826,48.278,5.826c44.921,0,47.359-4.232,48.277-5.826c0.433-0.748,0.478-1.496,0.341-2.102
		c-0.193-1.795-1.716-15.828-2.2-21.654c-0.629-7.543-3.206-10.963-3.748-11.605l-4.398-5.679l-0.012-9.875
		c3.502-2.166,5.943-5.829,7.428-8.68l21.205,59.601c0.481,1.346,1.455,2.424,2.745,3.039c0.729,0.348,1.51,0.521,2.294,0.521
		c0.605,0,1.212-0.104,1.797-0.313l32.675-11.625C392.027,318.102,393.482,315.035,392.476,312.215z M282.285,202.585
		c-12.399-19.433-18.308-37.921-20.114-44.291l40.786-0.007C300.703,164.125,294.332,179.705,282.285,202.585z M223.472,193.105
		l29.788-18.831c0.377-0.239,0.677-0.583,0.86-0.99l4.657-10.261c2.745,8.814,9.099,26.11,21.048,44.191
		c-1.668,3.104-3.428,6.323-5.295,9.664c-18.643,33.369-30.426,44.32-34.105,47.207c-0.379-0.86-0.604-1.482-0.672-1.675
		l-17.119-67.276C222.484,194.485,222.907,193.461,223.472,193.105z M211.63,325.932c-0.093,0.262-0.286,0.387-0.394,0.438
		c-0.13,0.063-0.338,0.119-0.582,0.031l-32.674-11.627c-0.397-0.141-0.605-0.58-0.48-0.936l42.235-111.494l14.959,58.789
		c-0.01,0.027-0.027,0.052-0.038,0.08L211.63,325.932z M269.716,277.485c-0.027,0.254-0.078,0.501-0.078,0.763v5.092
		c0,0.541,0.062,1.068,0.171,1.579h-20.646l0.007-7.434H269.716z M316.518,277.485l0.01,7.434h-20.601
		c0.108-0.511,0.169-1.038,0.169-1.579v-5.092c0-0.262-0.05-0.509-0.077-0.763H316.518z M293.215,289.254l17.592,23.699
		c0.314,0.453,0.246,1.289-0.136,1.686l-6.928,7.158l-17.479-28.37l1.593-2.479h0.631
		C290.282,290.948,291.911,290.298,293.215,289.254z M272.981,289.636c1.217,0.827,2.686,1.313,4.266,1.313h5.157l-17.396,27.05
		c-0.056,0.096-0.107,0.133-0.104,0.137c-0.016,0-0.075-0.021-0.163-0.098l-7.729-6.734c-0.319-0.279-0.371-0.816-0.11-1.15
		L272.981,289.636z M291.509,283.34c0,1.666-1.354,3.021-3.021,3.021h-11.241c-1.666,0-3.022-1.354-3.022-3.021v-5.092
		c0-1.667,1.356-3.022,3.022-3.022h11.241c1.666,0,3.021,1.355,3.021,3.022V283.34z M324.689,304.092
		c0.456,5.445,1.797,17.928,2.148,21.178c-1.799,0.906-9.88,3.436-43.994,3.436c-34.115,0-42.195-2.529-43.994-3.436
		c0.351-3.25,1.693-15.732,2.148-21.18c0.531-6.391,2.664-9.004,2.662-9.004c0.038-0.041,0.073-0.084,0.105-0.127l4.225-5.453
		h19.267l-13.964,17.816c-1.751,2.23-1.436,5.564,0.703,7.436l7.732,6.734c0.911,0.799,2.042,1.229,3.181,1.229
		c0.241,0,0.479-0.02,0.719-0.057c1.373-0.223,2.587-1.074,3.285-2.262l14.601-22.697l16.302,26.457
		c0.749,1.311,1.973,2.16,3.354,2.332c0.173,0.021,0.347,0.033,0.519,0.033c1.207,0,2.389-0.52,3.307-1.473l6.978-7.232
		c1.887-1.959,2.152-5.242,0.563-7.541l-15.423-20.775h18.59l4.303,5.551C322.024,295.082,324.158,297.695,324.689,304.092z
		 M318.23,272.898h-24.342c-1.38-1.393-3.29-2.259-5.4-2.259h-11.241c-2.111,0-4.021,0.866-5.402,2.259h-24.389
		c-1.979-1.063-3.591-2.886-4.816-4.733c3.85-2.819,16.175-13.753,35.896-49.05c15.818-28.312,24.443-48.462,27.896-57.133
		l5.137,11.302c0.184,0.407,0.483,0.751,0.861,0.99l29.789,18.831c0.564,0.356,0.985,1.38,0.851,1.976l-17.134,67.329
		C325.669,263.168,323.047,270.315,318.23,272.898z M387.708,314.773L355.032,326.4c-0.241,0.084-0.449,0.029-0.58-0.031
		c-0.107-0.051-0.302-0.176-0.395-0.436l-23.027-64.721c-0.011-0.028-0.027-0.052-0.036-0.079l14.957-58.791l42.22,111.454
		C388.313,314.193,388.104,314.633,387.708,314.773z"/>
</g>
</svg>
