<?xml version="1.0" encoding="UTF-8"?>
<svg width="178px" height="50px" viewBox="0 0 178 50" version="1.1" xmlns="http://www.w3.org/2000/svg" xmlns:xlink="http://www.w3.org/1999/xlink">
    <title>Group</title>
    <g id="🚂-Playground" stroke="none" stroke-width="1" fill="none" fill-rule="evenodd">
        <g id="Typo" transform="translate(-250, -56)" fill-rule="nonzero">
            <g id="Group" transform="translate(250, 56)">
                <g id="TJ-Sokol-Vejprnice" transform="translate(69, 6)" fill="#000000">
                    <polygon id="Path" points="5.50775886 16.6122449 5.50775886 4.73673469 0.780451661 4.73673469 0.780451661 0.897959184 14.8062829 0.897959184 14.8062829 4.73673469 9.9228854 4.73673469 9.9228854 16.6122449"></polygon>
                    <path d="M21.3620769,16.8367347 C20.767447,16.8367347 20.2099816,16.7731293 19.6896805,16.6459184 C19.1693794,16.5187075 18.6936755,16.3353741 18.2625689,16.0959184 C17.8314622,15.8564626 17.4523857,15.5608844 17.1253393,15.2091837 C16.7982929,14.857483 16.5084108,14.4646259 16.2556932,14.0306122 L18.7308399,11.4489796 C18.8943631,11.6884354 19.0541698,11.9017007 19.2102602,12.0887755 C19.3663505,12.2758503 19.5261573,12.4255102 19.6896805,12.5377551 C19.8532037,12.65 20.0278762,12.7397959 20.213698,12.8071429 C20.3995198,12.8744898 20.5890581,12.9081633 20.7823128,12.9081633 C21.064762,12.9081633 21.3137632,12.8408163 21.5293165,12.7061224 C21.7448698,12.5714286 21.9121095,12.3843537 22.0310354,12.144898 C22.1499614,11.9054422 22.2094244,11.6210884 22.2094244,11.2918367 L22.2094244,4.71428571 L19.3329026,4.71428571 L19.3329026,0.897959184 L28.8767114,0.897959184 L28.8767114,4.71428571 L26.4684606,4.71428571 L26.4684606,11.8306122 C26.4684606,12.6238095 26.3383853,13.3272109 26.0782348,13.9408163 C25.8180842,14.5544218 25.4575899,15.0782313 24.9967518,15.5122449 C24.5359136,15.9462585 23.9970303,16.2755102 23.3801019,16.5 C22.7631734,16.7244898 22.0904984,16.8367347 21.3620769,16.8367347 Z" id="Path"></path>
                    <path d="M45.2884949,16.8367347 C44.173564,16.8367347 43.1812754,16.7095238 42.3116293,16.455102 C41.4419832,16.2006803 40.6763973,15.8340136 40.0148716,15.355102 C39.3533459,14.8761905 38.7624325,14.314966 38.2421314,13.6714286 L40.8287712,10.7306122 C41.5720585,11.7034014 42.3376444,12.3506803 43.1255289,12.672449 C43.9134134,12.9942177 44.6789993,13.155102 45.4222866,13.155102 C45.7493331,13.155102 46.046648,13.1214286 46.3142314,13.0540816 C46.5818148,12.9867347 46.7862188,12.8744898 46.9274434,12.7173469 C47.068668,12.5602041 47.1392803,12.3619048 47.1392803,12.122449 C47.1392803,11.9129252 47.0798173,11.7333333 46.9608913,11.5836735 C46.8419654,11.4340136 46.6784422,11.3030612 46.4703217,11.1908163 C46.2622013,11.0785714 46.0317822,10.977551 45.7790645,10.8877551 C45.5263469,10.7979592 45.2736292,10.7268707 45.0209115,10.6744898 C44.7681938,10.6221088 44.522909,10.5659864 44.2850571,10.5061224 C43.4079781,10.3115646 42.6423922,10.0646259 41.9882993,9.76530612 C41.3342065,9.46598639 40.7878904,9.11054422 40.3493509,8.69897959 C39.9108113,8.28741497 39.5837649,7.8122449 39.3682116,7.27346939 C39.1526583,6.73469388 39.0448816,6.12857143 39.0448816,5.45510204 C39.0448816,4.72176871 39.2158377,4.04829932 39.5577499,3.43469388 C39.899662,2.82108844 40.3530673,2.29353741 40.9179656,1.85204082 C41.482864,1.41054422 42.1332404,1.07380952 42.8690948,0.841836735 C43.6049492,0.609863946 44.3742516,0.493877551 45.1770018,0.493877551 C46.277067,0.493877551 47.213609,0.602380952 47.9866278,0.819387755 C48.7596466,1.03639456 49.410023,1.34693878 49.937757,1.75102041 C50.4654909,2.15510204 50.9226126,2.62653061 51.309122,3.16530612 L48.677885,5.7244898 C48.3657043,5.38027211 48.0275086,5.09591837 47.6632978,4.87142857 C47.2990871,4.64693878 46.923727,4.47857143 46.5372176,4.36632653 C46.1507082,4.25408163 45.7567659,4.19795918 45.3553908,4.19795918 C44.9837471,4.19795918 44.6604172,4.23537415 44.3854009,4.31020408 C44.1103846,4.38503401 43.8985477,4.49353741 43.7498902,4.63571429 C43.6012328,4.77789116 43.526904,4.96870748 43.526904,5.20816327 C43.526904,5.41768707 43.6086656,5.60102041 43.7721888,5.75816327 C43.9357121,5.91530612 44.1438325,6.0462585 44.3965502,6.15102041 C44.6492679,6.25578231 44.9205677,6.34183673 45.2104498,6.40918367 C45.5003318,6.47653061 45.7641988,6.53265306 46.0020507,6.57755102 C46.8196668,6.74217687 47.5666705,6.95544218 48.2430619,7.21734694 C48.9194534,7.4792517 49.5103668,7.8085034 50.0158021,8.20510204 C50.5212375,8.60170068 50.9077469,9.08435374 51.1753303,9.65306122 C51.4429137,10.2217687 51.5767055,10.8877551 51.5767055,11.6510204 C51.5767055,12.7734694 51.2979727,13.720068 50.7405072,14.4908163 C50.1830418,15.2615646 49.4323216,15.8452381 48.4883467,16.2418367 C47.5443719,16.6384354 46.4777546,16.8367347 45.2884949,16.8367347 Z" id="Path"></path>
                    <path d="M59.6042082,16.8367347 C58.3406198,16.8367347 57.2108232,16.5673469 56.2148182,16.0285714 C55.2188132,15.4897959 54.4383615,14.7564626 53.8734632,13.8285714 C53.3085649,12.9006803 53.0261157,11.8306122 53.0261157,10.6183673 C53.0261157,9.40612245 53.3085649,8.33605442 53.8734632,7.40816327 C54.4383615,6.48027211 55.2188132,5.74693878 56.2148182,5.20816327 C57.2108232,4.66938776 58.3406198,4.4 59.6042082,4.4 C60.8677966,4.4 61.9938769,4.66938776 62.982449,5.20816327 C63.9710211,5.74693878 64.7477563,6.48027211 65.3126547,7.40816327 C65.877553,8.33605442 66.1600022,9.40612245 66.1600022,10.6183673 C66.1600022,11.8306122 65.877553,12.9006803 65.3126547,13.8285714 C64.7477563,14.7564626 63.9710211,15.4897959 62.982449,16.0285714 C61.9938769,16.5673469 60.8677966,16.8367347 59.6042082,16.8367347 Z M59.6042082,13.3122449 C60.0501806,13.3122449 60.4552722,13.1962585 60.819483,12.9642857 C61.1836938,12.7323129 61.4661429,12.4105442 61.6668305,11.9989796 C61.8675181,11.587415 61.9678618,11.1272109 61.9678618,10.6183673 C61.9678618,10.0795918 61.8675181,9.60816327 61.6668305,9.20408163 C61.4661429,8.8 61.1836938,8.48197279 60.819483,8.25 C60.4552722,8.01802721 60.0501806,7.90204082 59.6042082,7.90204082 C59.1433701,7.90204082 58.7345621,8.01802721 58.3777842,8.25 C58.0210063,8.48197279 57.7385571,8.8037415 57.5304367,9.21530612 C57.3223162,9.62687075 57.218256,10.0945578 57.218256,10.6183673 C57.218256,11.1272109 57.3223162,11.587415 57.5304367,11.9989796 C57.7385571,12.4105442 58.0210063,12.7323129 58.3777842,12.9642857 C58.7345621,13.1962585 59.1433701,13.3122449 59.6042082,13.3122449 Z" id="Shape"></path>
                    <path d="M72.4705113,13.2 L70.5974274,10.4163265 L76.1051862,4.64693878 L81.5237506,4.64693878 L72.4705113,13.2 Z M68.4121627,16.6122449 L68.4121627,0 L72.5820044,0 L72.5820044,16.6122449 L68.4121627,16.6122449 Z M76.5065614,16.6122449 L72.4482127,11.044898 L75.3693318,8.88979592 L81.3007644,16.6122449 L76.5065614,16.6122449 Z" id="Shape"></path>
                    <path d="M88.6816073,16.8367347 C87.4180189,16.8367347 86.2882222,16.5673469 85.2922172,16.0285714 C84.2962122,15.4897959 83.5157606,14.7564626 82.9508622,13.8285714 C82.3859639,12.9006803 82.1035147,11.8306122 82.1035147,10.6183673 C82.1035147,9.40612245 82.3859639,8.33605442 82.9508622,7.40816327 C83.5157606,6.48027211 84.2962122,5.74693878 85.2922172,5.20816327 C86.2882222,4.66938776 87.4180189,4.4 88.6816073,4.4 C89.9451957,4.4 91.0712759,4.66938776 92.059848,5.20816327 C93.0484201,5.74693878 93.8251553,6.48027211 94.3900537,7.40816327 C94.954952,8.33605442 95.2374012,9.40612245 95.2374012,10.6183673 C95.2374012,11.8306122 94.954952,12.9006803 94.3900537,13.8285714 C93.8251553,14.7564626 93.0484201,15.4897959 92.059848,16.0285714 C91.0712759,16.5673469 89.9451957,16.8367347 88.6816073,16.8367347 Z M88.6816073,13.3122449 C89.1275796,13.3122449 89.5326712,13.1962585 89.896882,12.9642857 C90.2610928,12.7323129 90.5435419,12.4105442 90.7442295,11.9989796 C90.9449171,11.587415 91.0452609,11.1272109 91.0452609,10.6183673 C91.0452609,10.0795918 90.9449171,9.60816327 90.7442295,9.20408163 C90.5435419,8.8 90.2610928,8.48197279 89.896882,8.25 C89.5326712,8.01802721 89.1275796,7.90204082 88.6816073,7.90204082 C88.2207691,7.90204082 87.8119611,8.01802721 87.4551832,8.25 C87.0984053,8.48197279 86.8159561,8.8037415 86.6078357,9.21530612 C86.3997153,9.62687075 86.295655,10.0945578 86.295655,10.6183673 C86.295655,11.1272109 86.3997153,11.587415 86.6078357,11.9989796 C86.8159561,12.4105442 87.0984053,12.7323129 87.4551832,12.9642857 C87.8119611,13.1962585 88.2207691,13.3122449 88.6816073,13.3122449 Z" id="Shape"></path>
                    <polygon id="Path" points="97.5118603 16.6122449 97.5118603 0 101.659403 0 101.659403 16.6122449"></polygon>
                    <path d="M6.22131467,39.0612245 L0,23.3469388 L4.45972377,23.3469388 L7.15785666,30.6653061 C7.33624561,31.1292517 7.48490307,31.5295918 7.60382904,31.8663265 C7.722755,32.2030612 7.82681522,32.5173469 7.9160097,32.8091837 C8.00520418,33.1010204 8.09439865,33.4078231 8.18359313,33.7295918 C8.2727876,34.0513605 8.36198208,34.4367347 8.45117655,34.8857143 L7.71532213,34.8857143 C7.84911384,34.3020408 7.97547268,33.8081633 8.09439865,33.4040816 C8.21332462,33 8.34339989,32.5959184 8.48462448,32.1918367 C8.62584907,31.7877551 8.80795445,31.2789116 9.03094064,30.6653061 L11.6844763,23.3469388 L16.032707,23.3469388 L9.76679507,39.0612245 L6.22131467,39.0612245 Z M34.9419358,27.0959184 L34.9419358,38.7244898 C34.9419358,39.9666667 34.7449646,40.9656463 34.3510224,41.7214286 C33.9570801,42.4772109 33.3698831,43.0272109 32.5894315,43.3714286 C31.8089798,43.7156463 30.831557,43.8877551 29.6571631,43.8877551 L28.0739612,40.655102 C28.8023827,40.655102 29.3635646,40.5727891 29.7575069,40.4081633 C30.1514492,40.2435374 30.422749,39.9517007 30.5714065,39.5326531 C30.7200639,39.1136054 30.7943927,38.514966 30.7943927,37.7367347 L30.7943927,27.0959184 L34.9419358,27.0959184 Z M22.6776954,26.8489796 C23.5399087,26.8489796 24.3240768,26.9986395 25.0301997,27.2979592 C25.7363226,27.5972789 26.3458182,28.0238095 26.8586864,28.577551 C27.3715547,29.1312925 27.7654969,29.7823129 28.0405132,30.5306122 C28.3155295,31.2789116 28.4381719,32.1020408 28.4084404,33 L28.3861418,33.9428571 L20.671,33.9423061 L20.740446,34.1109954 C20.7704809,34.1763571 20.8030186,34.2400389 20.8380593,34.3020408 C21.0833441,34.7360544 21.4475549,35.0727891 21.9306917,35.3122449 C22.4138284,35.5517007 23.0047418,35.6714286 23.7034319,35.6714286 C24.16427,35.6714286 24.5693616,35.6115646 24.9187066,35.4918367 C25.2680516,35.3721088 25.6434117,35.162585 26.0447868,34.8632653 L27.9624681,37.5795918 C27.442167,37.9986395 26.9181494,38.3316327 26.3904154,38.5785714 C25.8626815,38.8255102 25.3386639,39.005102 24.8183628,39.1173469 C24.2980617,39.2295918 23.7703277,39.2857143 23.2351609,39.2857143 C21.882378,39.2857143 20.7154169,39.020068 19.7342777,38.4887755 C18.7531385,37.957483 17.9949854,37.2241497 17.4598186,36.2887755 C16.9246517,35.3534014 16.6570683,34.2870748 16.6570683,33.0897959 C16.6570683,32.1918367 16.8057258,31.3612245 17.1030407,30.5979592 C17.4003556,29.8346939 17.8165965,29.172449 18.3517633,28.6112245 C18.8869302,28.05 19.5224408,27.6159864 20.2582952,27.3091837 C20.9941497,27.002381 21.8006164,26.8489796 22.6776954,26.8489796 Z M22.7668899,30.2387755 C22.2614545,30.2387755 21.8414972,30.3397959 21.5070179,30.5418367 C21.1725386,30.7438776 20.9161045,31.0319728 20.7377156,31.4061224 C20.6867473,31.5130224 20.6430602,31.6260308 20.6066543,31.7451479 L20.577,31.8543061 L24.661,31.8543061 L24.6551493,31.7163549 C24.6314054,31.4534108 24.5483018,31.2190476 24.4058384,31.0132653 C24.2348823,30.7663265 24.0081797,30.5755102 23.7257305,30.4408163 C23.4432813,30.3061224 23.1236678,30.2387755 22.7668899,30.2387755 Z M32.9350601,20.7653061 C33.6783474,20.7653061 34.2618279,20.9411565 34.6855017,21.2928571 C35.1091754,21.6445578 35.3210123,22.1496599 35.3210123,22.8081633 C35.3210123,23.4068027 35.105459,23.8931973 34.6743523,24.2673469 C34.2432457,24.6414966 33.6634816,24.8285714 32.9350601,24.8285714 C32.176907,24.8285714 31.5897101,24.6527211 31.1734692,24.3010204 C30.7572283,23.9493197 30.5491079,23.4517007 30.5491079,22.8081633 C30.5491079,22.2095238 30.7609447,21.7193878 31.1846185,21.3377551 C31.6082923,20.9561224 32.1917728,20.7653061 32.9350601,20.7653061 Z M38.1083397,44 L38.1083397,27.0959184 L41.9882993,27.0959184 L42.1889869,29.744898 L41.3862366,29.5428571 C41.4754311,29.0340136 41.7244323,28.577551 42.1332404,28.1734694 C42.5420484,27.7693878 43.0512002,27.447619 43.6606958,27.2081633 C44.2701913,26.9687075 44.931717,26.8489796 45.6452728,26.8489796 C46.6412778,26.8489796 47.5257897,27.1146259 48.2988085,27.6459184 C49.0718273,28.1772109 49.6813228,28.9068027 50.1272952,29.8346939 C50.5732676,30.762585 50.7962538,31.8401361 50.7962538,33.0673469 C50.7962538,34.2646259 50.5732676,35.3309524 50.1272952,36.2663265 C49.6813228,37.2017007 49.0643944,37.935034 48.2765099,38.4663265 C47.4886253,38.997619 46.5892477,39.2632653 45.578377,39.2632653 C44.9094184,39.2632653 44.2739078,39.1397959 43.6718451,38.8928571 C43.0697824,38.6459184 42.564347,38.3091837 42.155539,37.8826531 C41.746731,37.4561224 41.482864,36.9734694 41.363938,36.4346939 L42.30048,36.1204082 L42.30048,44 L38.1083397,44 Z M44.463446,35.8285714 C44.9391499,35.8285714 45.3479579,35.7163265 45.6898701,35.4918367 C46.0317822,35.2673469 46.2919328,34.9493197 46.4703217,34.5377551 C46.6487107,34.1261905 46.7379052,33.6360544 46.7379052,33.0673469 C46.7379052,32.4836735 46.6487107,31.9860544 46.4703217,31.5744898 C46.2919328,31.1629252 46.0317822,30.844898 45.6898701,30.6204082 C45.3479579,30.3959184 44.9391499,30.2836735 44.463446,30.2836735 C43.9877422,30.2836735 43.5789342,30.3921769 43.237022,30.6091837 C42.8951098,30.8261905 42.6349593,31.1442177 42.4565703,31.5632653 C42.2781814,31.9823129 42.1889869,32.4836735 42.1889869,33.0673469 C42.1889869,33.6360544 42.2781814,34.1261905 42.4565703,34.5377551 C42.6349593,34.9493197 42.8951098,35.2673469 43.237022,35.4918367 C43.5789342,35.7163265 43.9877422,35.8285714 44.463446,35.8285714 Z M53.0707129,39.0612245 L53.0707129,27.0959184 L56.9506726,27.0959184 L57.1736588,31.0244898 L56.3040127,30.3510204 C56.4972674,29.692517 56.7982987,29.097619 57.2071067,28.5663265 C57.6159147,28.035034 58.1102008,27.6159864 58.6899649,27.3091837 C59.269729,27.002381 59.8792245,26.8489796 60.5184516,26.8489796 C60.786035,26.8489796 61.0387527,26.8676871 61.2766047,26.905102 C61.5144566,26.942517 61.7374428,26.9911565 61.9455632,27.0510204 L60.8083337,31.6755102 C60.6448105,31.5707483 60.4143914,31.4772109 60.1170765,31.394898 C59.8197616,31.312585 59.500148,31.2714286 59.1582359,31.2714286 C58.860921,31.2714286 58.5933375,31.320068 58.3554856,31.4173469 C58.1176337,31.5146259 57.9169461,31.6530612 57.7534229,31.8326531 C57.5898997,32.0122449 57.4635408,32.2255102 57.3743464,32.472449 C57.2851519,32.7193878 57.2405546,33.007483 57.2405546,33.3367347 L57.2405546,39.0612245 L53.0707129,39.0612245 Z M63.7294527,39.0612245 L63.7294527,27.0959184 L67.6094124,27.0959184 L67.7878014,29.5204082 L66.9404539,29.7897959 C67.0891113,29.2210884 67.3789934,28.7159864 67.8101,28.2744898 C68.2412066,27.8329932 68.7540749,27.485034 69.3487047,27.2306122 C69.9433345,26.9761905 70.5676959,26.8489796 71.2217887,26.8489796 C72.1137334,26.8489796 72.86817,27.0323129 73.4850985,27.3989796 C74.102027,27.7656463 74.5702979,28.3119048 74.8899115,29.0377551 C75.209525,29.7636054 75.3693318,30.6503401 75.3693318,31.6979592 L75.3693318,39.0612245 L71.2217887,39.0612245 L71.2217887,32.0346939 C71.2217887,31.6455782 71.1623257,31.320068 71.0433997,31.0581633 C70.9244738,30.7962585 70.7460848,30.5979592 70.5082329,30.4632653 C70.2703809,30.3285714 69.9879318,30.2687075 69.6608854,30.2836735 C69.4081677,30.2836735 69.1740322,30.3210884 68.9584789,30.3959184 C68.7429255,30.4707483 68.5533873,30.5867347 68.3898641,30.7438776 C68.2263409,30.9010204 68.1036985,31.0768707 68.0219369,31.2714286 C67.9401753,31.4659864 67.8992945,31.6829932 67.8992945,31.922449 L67.8992945,39.0612245 L65.8255229,39.0612245 C65.3200876,39.0612245 64.8926974,39.0612245 64.5433523,39.0612245 C64.1940073,39.0612245 63.9227074,39.0612245 63.7294527,39.0612245 Z M78.4242426,39.0612245 L78.4242426,27.0959184 L82.5717857,27.0959184 L82.5717857,39.0612245 L78.4242426,39.0612245 Z M80.4980141,24.8285714 C79.7398611,24.8285714 79.1526641,24.6527211 78.7364232,24.3010204 C78.3201824,23.9493197 78.1120619,23.4517007 78.1120619,22.8081633 C78.1120619,22.2095238 78.3238988,21.7193878 78.7475725,21.3377551 C79.1712463,20.9561224 79.7547268,20.7653061 80.4980141,20.7653061 C81.2413014,20.7653061 81.824782,20.9411565 82.2484557,21.2928571 C82.6721295,21.6445578 82.8839663,22.1496599 82.8839663,22.8081633 C82.8839663,23.4068027 82.668413,23.8931973 82.2373064,24.2673469 C81.8061998,24.6414966 81.2264357,24.8285714 80.4980141,24.8285714 Z M91.1344553,39.2857143 C89.9600614,39.2857143 88.9083099,39.0163265 87.9792008,38.477551 C87.0500916,37.9387755 86.3179537,37.2017007 85.7827868,36.2663265 C85.24762,35.3309524 84.9800365,34.2646259 84.9800365,33.0673469 C84.9800365,31.870068 85.24762,30.8037415 85.7827868,29.8683673 C86.3179537,28.9329932 87.0500916,28.1959184 87.9792008,27.6571429 C88.9083099,27.1183673 89.9600614,26.8489796 91.1344553,26.8489796 C92.204789,26.8489796 93.1896447,27.0210884 94.0890223,27.3653061 C94.9884,27.7095238 95.7056722,28.2034014 96.2408391,28.8469388 L93.9886785,31.5408163 C93.8251553,31.3312925 93.6170349,31.1404762 93.3643172,30.9683673 C93.1115995,30.7962585 92.8328668,30.6615646 92.528119,30.5642857 C92.2233712,30.4670068 91.8851755,30.4183673 91.5135319,30.4183673 C91.0229622,30.4183673 90.5918556,30.5306122 90.220212,30.755102 C89.8485683,30.9795918 89.5624027,31.2901361 89.3617151,31.6867347 C89.1610276,32.0833333 89.0606838,32.5360544 89.0606838,33.044898 C89.0606838,33.5537415 89.1573111,34.0027211 89.3505658,34.3918367 C89.5438205,34.7809524 89.8299861,35.0952381 90.2090626,35.3346939 C90.5881392,35.5741497 91.0229622,35.6938776 91.5135319,35.6938776 C91.8851755,35.6938776 92.2233712,35.6489796 92.528119,35.5591837 C92.8328668,35.4693878 93.1078831,35.3421769 93.3531679,35.177551 C93.5984527,35.0129252 93.8102896,34.8183673 93.9886785,34.5938776 L96.2408391,37.3102041 C95.6908065,37.9387755 94.9661013,38.4251701 94.0667237,38.7693878 C93.1673461,39.1136054 92.1899233,39.2857143 91.1344553,39.2857143 Z M103.822369,39.2857143 C102.469587,39.2857143 101.302626,39.020068 100.321486,38.4887755 C99.3403471,37.957483 98.582194,37.2241497 98.0470272,36.2887755 C97.5118603,35.3534014 97.2442769,34.2870748 97.2442769,33.0897959 C97.2442769,32.1918367 97.3929344,31.3612245 97.6902493,30.5979592 C97.9875642,29.8346939 98.4038051,29.172449 98.9389719,28.6112245 C99.4741388,28.05 100.109649,27.6159864 100.845504,27.3091837 C101.581358,27.002381 102.387825,26.8489796 103.264904,26.8489796 C104.127117,26.8489796 104.911285,26.9986395 105.617408,27.2979592 C106.323531,27.5972789 106.933027,28.0238095 107.445895,28.577551 C107.958763,29.1312925 108.352706,29.7823129 108.627722,30.5306122 C108.902738,31.2789116 109.025381,32.1020408 108.995649,33 L108.97335,33.9428571 L99.6079305,33.9428571 L99.0950623,31.855102 L105.650856,31.855102 L105.249481,32.3040816 L105.249481,31.877551 C105.249481,31.5482993 105.164003,31.2602041 104.993047,31.0132653 C104.822091,30.7663265 104.595388,30.5755102 104.312939,30.4408163 C104.03049,30.3061224 103.710876,30.2387755 103.354098,30.2387755 C102.848663,30.2387755 102.428706,30.3397959 102.094227,30.5418367 C101.759747,30.7438776 101.503313,31.0319728 101.324924,31.4061224 C101.146535,31.7802721 101.057341,32.2292517 101.057341,32.7530612 C101.057341,33.3517007 101.179983,33.8680272 101.425268,34.3020408 C101.670553,34.7360544 102.034764,35.0727891 102.5179,35.3122449 C103.001037,35.5517007 103.59195,35.6714286 104.29064,35.6714286 C104.751479,35.6714286 105.15657,35.6115646 105.505915,35.4918367 C105.85526,35.3721088 106.23062,35.162585 106.631995,34.8632653 L108.549677,37.5795918 C108.029376,37.9986395 107.505358,38.3316327 106.977624,38.5785714 C106.44989,38.8255102 105.925873,39.005102 105.405571,39.1173469 C104.88527,39.2295918 104.357536,39.2857143 103.822369,39.2857143 Z" id="Combined-Shape"></path>
                </g>
                <g id="noun-falcon-2183195" fill="#D70000">
                    <path d="M51.2490852,7.58627525 L0,7.58546627 C0.173217288,7.94144896 0.356111842,8.29092836 0.54140715,8.638813 C3.66341859,11.7042655 7.46296241,14.1757232 11.8303134,15.779385 C16.657809,17.5519667 21.6377235,18.0737626 26.4192252,17.5090947 C21.5393421,19.1020696 16.2081832,19.5340828 10.8085492,18.5252235 C10.1728857,18.407106 9.54848338,18.2647191 8.92892797,18.1101935 C13.5598669,21.6642212 19.0384948,24.1729589 25.0286235,25.2766543 C26.3482957,25.4230882 27.6896654,25.4975177 29.0521552,25.4756758 C34.1915012,25.3939642 39.0270405,24.089812 43.2898226,21.8431529 C40.5553556,24.0671127 37.4286004,25.8559319 33.9916447,27.0841011 C36.8331556,29.6479304 40.536793,31.2878367 44.6490124,31.4966047 C46.0194428,31.5661817 47.3552231,31.4561539 48.6484128,31.2166733 L40.1799799,40.9550407 L56,50 L56,0 C51.7558423,0.149670962 52.2819869,3.77812206 51.2490852,7.58627525 Z" id="Path"></path>
                </g>
            </g>
        </g>
    </g>
</svg>