<?xml version="1.0" encoding="UTF-8"?>
<svg width="32px" height="32px" viewBox="0 0 32 32" version="1.1" xmlns="http://www.w3.org/2000/svg" xmlns:xlink="http://www.w3.org/1999/xlink">
    <title>ico 32 / map</title>
    <g id="ico-32-/-map" stroke="none" stroke-width="1" fill="none" fill-rule="evenodd">
        <g id="map" transform="translate(4, 4)" fill="#D70000" fill-rule="nonzero">
            <path d="M21,3.5 C21,2.673 20.327,2 19.5,2 C18.673,2 18,2.673 18,3.5 C18,4.327 18.673,5 19.5,5 C20.327,5 21,4.327 21,3.5 Z M19,3.5 C19,3.224 19.224,3 19.5,3 C19.776,3 20,3.224 20,3.5 C20,3.776 19.776,4 19.5,4 C19.224,4 19,3.776 19,3.5 Z M23.5,5 C23.224,5 23,5.224 23,5.5 L23,21.109 L16,22.859 L16,6.5 C16,6.409 15.969,6.328 15.926,6.254 C15.916,6.236 15.905,6.221 15.892,6.204 C15.839,6.134 15.774,6.073 15.691,6.039 L8.697,3.041 C8.683,3.035 8.668,3.039 8.654,3.034 C8.609,3.019 8.565,3.014 8.518,3.012 C8.485,3.011 8.455,3.009 8.422,3.014 C8.408,3.016 8.393,3.011 8.379,3.015 L0.379,5.015 C0.156,5.071 0,5.271 0,5.5 L0,22.5 C0,22.654 0.07,22.799 0.192,22.894 C0.281,22.963 0.39,23 0.5,23 C0.541,23 0.581,22.995 0.621,22.985 L8.459,21.026 L15.304,23.959 C15.366,23.987 15.433,24 15.5,24 C15.541,24 15.581,23.995 15.621,23.985 L23.621,21.985 C23.844,21.929 24,21.729 24,21.5 L24,5.5 C24,5.224 23.776,5 23.5,5 Z M8,20.11 L1,21.86 L1,5.891 L8,4.141 L8,20.11 Z M15,22.741 L9,20.17 L9,4.258 L15,6.829 L15,22.741 Z M19.5,11 C19.681,11 19.848,10.902 19.936,10.745 C20.25,10.186 23,5.237 23,3.5 C23,1.57 21.43,0 19.5,0 C17.57,0 16,1.57 16,3.5 C16,5.238 18.751,10.186 19.064,10.745 C19.152,10.902 19.319,11 19.5,11 Z M19.5,1 C20.878,1 22,2.122 22,3.5 C22,4.487 20.632,7.356 19.5,9.461 C18.368,7.356 17,4.488 17,3.5 C17,2.122 18.122,1 19.5,1 Z" id="Shape"></path>
        </g>
    </g>
</svg>