<?xml version="1.0" encoding="UTF-8"?>
<svg width="32px" height="32px" viewBox="0 0 32 32" version="1.1" xmlns="http://www.w3.org/2000/svg" xmlns:xlink="http://www.w3.org/1999/xlink">
    <title>ico 32 / big-smile</title>
    <g id="ico-32-/-big-smile" stroke="none" stroke-width="1" fill="none" fill-rule="evenodd">
        <g id="big-smile" transform="translate(1, 1)" fill="#000000" fill-rule="nonzero">
            <path d="M15,26 C8.9,26 4,22.2 4,17.5 C4,17.2 4.2,17 4.5,17 L25.5,17 C25.8,17 26,17.2 26,17.5 C26,22.2 21.1,26 15,26 Z M5,18 C5.3,21.9 9.7,25 15,25 C20.3,25 24.6,21.9 25,18 L5,18 Z" id="Shape"></path>
            <path d="M15,30 C6.7,30 0,23.3 0,15 C0,6.7 6.7,0 15,0 C23.3,0 30,6.7 30,15 C30,23.3 23.3,30 15,30 Z M15,1 C7.3,1 1,7.3 1,15 C1,22.7 7.3,29 15,29 C22.7,29 29,22.7 29,15 C29,7.3 22.7,1 15,1 Z" id="Shape"></path>
            <path d="M9.5,12 C8.7,12 8,11.3 8,10.5 C8,9.7 8.7,9 9.5,9 C10.3,9 11,9.7 11,10.5 C11,11.3 10.3,12 9.5,12 Z M9.5,10 C9.2,10 9,10.2 9,10.5 C9,10.8 9.2,11 9.5,11 C9.8,11 10,10.8 10,10.5 C10,10.2 9.8,10 9.5,10 Z" id="Shape"></path>
            <path d="M20.5,12 C19.7,12 19,11.3 19,10.5 C19,9.7 19.7,9 20.5,9 C21.3,9 22,9.7 22,10.5 C22,11.3 21.3,12 20.5,12 Z M20.5,10 C20.2,10 20,10.2 20,10.5 C20,10.8 20.2,11 20.5,11 C20.8,11 21,10.8 21,10.5 C21,10.2 20.8,10 20.5,10 Z" id="Shape"></path>
        </g>
    </g>
</svg>