<?xml version="1.0" encoding="UTF-8"?>
<svg  width="32px" height="32px" viewBox="0 0 32 32" version="1.1" xmlns="http://www.w3.org/2000/svg" xmlns:xlink="http://www.w3.org/1999/xlink">
    <title>ico 32 / soccer-ball</title>
    <g id="ico-32-/-soccer-ball" stroke="none" stroke-width="1" fill="none" fill-rule="evenodd">
        <g id="soccer-ball" transform="translate(1, 1)" fill="#D70000" fill-rule="nonzero">
            <path d="M8.5,12 C8.3,12 8.1,11.9 8.1,11.7 L6.1,7.7 C5.9,7.5 6,7.3 6.2,7.1 L11.2,3.1 C11.3,3 11.6,3 11.7,3.1 L16.7,5.6 C16.8,5.7 16.9,5.8 17,5.9 C17.1,6 17,6.2 16.9,6.3 L13.9,11.3 C13.8,11.4 13.7,11.5 13.5,11.5 L8.5,12 C8.5,12 8.5,12 8.5,12 Z M7.1,7.6 L8.8,11 L13.2,10.6 L15.8,6.3 L11.6,4.2 L7.1,7.6 Z" id="Shape"></path>
            <path d="M19.5,25 C19.4,25 19.3,25 19.2,24.9 L15.2,21.9 C15,21.8 15,21.5 15,21.3 L17,15.8 C17.1,15.6 17.2,15.5 17.4,15.5 L23.4,15 C23.7,15 23.9,15.2 23.9,15.4 L24.9,21.4 C24.9,21.6 24.8,21.8 24.7,21.9 L19.7,24.9 C19.7,25 19.6,25 19.5,25 Z M16.1,21.3 L19.5,23.9 L23.9,21.2 L23.1,16 L17.9,16.4 L16.1,21.3 Z" id="Shape"></path>
            <path d="M6.5,27 C6.4,27 6.3,27 6.3,26.9 C6.1,26.8 6,26.5 6.1,26.2 L8,22.4 L5.3,17.4 L1.1,18 C0.8,18 0.6,17.8 0.5,17.6 C0.5,17.3 0.7,17.1 0.9,17 L5.4,16.5 C5.6,16.5 5.8,16.6 5.9,16.8 L8.9,22.3 C9,22.4 9,22.6 8.9,22.8 L6.9,26.8 C6.9,26.9 6.7,27 6.5,27 Z" id="Path"></path>
            <path d="M29,12 C29,12 28.9,12 28.9,12 L25.4,11 C25.3,11 25.2,10.9 25.1,10.8 L22.1,5.8 C22,5.7 22,5.6 22,5.5 L22,3 C22,2.7 22.2,2.5 22.5,2.5 C22.8,2.5 23,2.7 23,3 L23,5.4 L25.8,10.1 L29.1,11 C29.4,11.1 29.5,11.4 29.4,11.6 C29.4,11.9 29.2,12 29,12 Z" id="Path"></path>
            <path d="M17.5,16.6 C17.4,16.6 17.2,16.5 17.1,16.4 L13.1,11.3 C12.9,11.1 13,10.8 13.2,10.6 C13.4,10.4 13.7,10.5 13.9,10.7 L17.9,15.8 C18.1,16 18,16.3 17.8,16.5 C17.7,16.5 17.6,16.6 17.5,16.6 Z" id="Path"></path>
            <path d="M8.5,23 C8.3,23 8,22.8 8,22.6 C8,22.3 8.2,22 8.4,22 L15.4,21 C15.7,21 15.9,21.2 16,21.4 C16,21.7 15.8,21.9 15.6,22 L8.5,23 C8.5,23 8.5,23 8.5,23 Z" id="Path"></path>
            <path d="M18.5,29.5 C18.5,29.5 18.4,29.5 18.4,29.5 C18.1,29.4 18,29.2 18,28.9 L19,24.4 C19.1,24.1 19.3,24 19.6,24 C19.9,24.1 20,24.3 20,24.6 L19,29.1 C18.9,29.3 18.7,29.5 18.5,29.5 Z" id="Path"></path>
            <path d="M27.5,22 L24.5,22 C24.2,22 24,21.8 24,21.5 C24,21.2 24.2,21 24.5,21 L27.5,21 C27.8,21 28,21.2 28,21.5 C28,21.8 27.8,22 27.5,22 Z" id="Path"></path>
            <path d="M23.5,16 C23.4,16 23.4,16 23.3,16 C23,15.9 22.9,15.6 23,15.3 L25,10.3 C25.1,10 25.4,9.9 25.7,10 C26,10.1 26.1,10.4 26,10.7 L24,15.7 C23.9,15.9 23.7,16 23.5,16 Z" id="Path"></path>
            <path d="M16.5,6.5 C16.2,6.5 16,6.3 16,6 C16,5.7 16.2,5.5 16.5,5.5 L22.5,5 C22.7,5 23,5.2 23,5.5 C23,5.8 22.8,6 22.5,6 L16.5,6.5 C16.5,6.5 16.5,6.5 16.5,6.5 Z" id="Path"></path>
            <path d="M5.5,17.5 C5.4,17.5 5.3,17.5 5.3,17.4 C5,17.3 4.9,17 5.1,16.8 L8.1,11.3 C8.2,11.1 8.5,11 8.8,11.1 C9,11.2 9.1,11.5 9,11.8 L6,17.3 C5.8,17.4 5.7,17.5 5.5,17.5 Z" id="Path"></path>
            <path d="M6.5,8 C6.5,8 6.5,8 6.5,8 L2.9,7.5 C2.6,7.5 2.4,7.2 2.5,6.9 C2.5,6.6 2.8,6.4 3.1,6.5 L6.6,7 C6.8,7 7,7.3 7,7.6 C7,7.8 6.7,8 6.5,8 Z" id="Path"></path>
            <path d="M11.5,4 C11.2,4 11,3.8 11,3.5 L11,1 C11,0.7 11.2,0.5 11.5,0.5 C11.8,0.5 12,0.7 12,1 L12,3.5 C12,3.8 11.8,4 11.5,4 Z" id="Path"></path>
            <path d="M15,30 C6.7,30 0,23.3 0,15 C0,6.7 6.7,0 15,0 C23.3,0 30,6.7 30,15 C30,23.3 23.3,30 15,30 Z M15,1 C7.3,1 1,7.3 1,15 C1,22.7 7.3,29 15,29 C22.7,29 29,22.7 29,15 C29,7.3 22.7,1 15,1 Z" id="Shape"></path>
        </g>
    </g>
</svg>