<?xml version="1.0" encoding="UTF-8"?>
<svg width="32px" height="32px" viewBox="0 0 32 32" version="1.1" xmlns="http://www.w3.org/2000/svg" xmlns:xlink="http://www.w3.org/1999/xlink">
    <title>ico 32 / table-tenis</title>
    <g id="ico-32-/-table-tenis" stroke="none" stroke-width="1" fill="none" fill-rule="evenodd">
        <g id="table-tenis" transform="translate(1, 1)" fill="#D70000" fill-rule="nonzero">
            <path d="M11.5,22.9964283 C11.4,22.9964283 11.2,22.9964283 11.1,22.8964283 C10.9,22.6964283 10.9,22.3964283 11.1,22.1964283 L22.1,11.1964283 C22.3,10.9964283 22.6,10.9964283 22.8,11.1964283 C23,11.3964283 23,11.6964283 22.8,11.8964283 L11.8,22.8964283 C11.8,22.9964283 11.6,22.9964283 11.5,22.9964283 Z" id="Path"></path>
            <path d="M14.9,24.0964283 C10.7,24.0964283 6.4,21.7964283 3.5,18.8964283 C-0.9,14.3964283 -1.2,6.99642827 2.9,2.89642827 C7,-1.20357173 14.4,-0.903571733 18.9,3.49642827 C22.5,7.09642827 25.9,15.3964283 23,20.2964283 C22.9,20.4964283 22.5,20.5964283 22.3,20.4964283 C22.1,20.3964283 22,20.0964283 22.1,19.7964283 C24.8,15.3964283 21.5,7.59642827 18.2,4.29642827 C14.2,0.296428267 7.4,-0.00357173301 3.7,3.69642827 C9.32630709e-15,7.39642827 0.3,14.1964283 4.3,18.1964283 C8.1,21.9964283 14.2,24.6964283 19.4,22.0964283 C19.6,21.9964283 19.9,22.0964283 20.1,22.2964283 C20.2,22.4964283 20.1,22.7964283 19.9,22.9964283 C18.2,23.6964283 16.5,24.0964283 14.9,24.0964283 Z" id="Path"></path>
            <path d="M26.5,29.9964283 C26.4,29.9964283 26.2,29.8964283 26.1,29.7964283 L18.1,20.7964283 C17.9,20.5964283 17.9,20.2964283 18.1,20.0964283 L20.1,18.0964283 C20.3,17.8964283 20.6,17.8964283 20.8,18.0964283 L29.8,26.0964283 C30,26.2964283 30,26.4964283 29.9,26.6964283 C29,28.3964283 28.4,29.0964283 26.7,29.8964283 C26.7,29.9964283 26.6,29.9964283 26.5,29.9964283 Z M19.2,20.4964283 L26.6,28.8964283 C27.8,28.2964283 28.2,27.7964283 28.9,26.5964283 L20.5,19.1964283 L19.2,20.4964283 Z" id="Shape"></path>
            <path d="M4.5,29.9964283 C2,29.9964283 0,27.9964283 0,25.4964283 C0,22.9964283 2,20.9964283 4.5,20.9964283 C7,20.9964283 9,22.9964283 9,25.4964283 C9,27.9964283 7,29.9964283 4.5,29.9964283 Z M4.5,21.9964283 C2.6,21.9964283 1,23.5964283 1,25.4964283 C1,27.3964283 2.6,28.9964283 4.5,28.9964283 C6.4,28.9964283 8,27.3964283 8,25.4964283 C8,23.5964283 6.4,21.9964283 4.5,21.9964283 Z" id="Shape"></path>
        </g>
    </g>
</svg>