<?xml version="1.0" encoding="UTF-8"?>
<svg width="32px" height="32px" viewBox="0 0 32 32" version="1.1" xmlns="http://www.w3.org/2000/svg" xmlns:xlink="http://www.w3.org/1999/xlink">
    <title>ico 32 / tennis</title>
    <g id="ico-32-/-tennis" stroke="none" stroke-width="1" fill="none" fill-rule="evenodd">
        <g id="tennis" transform="translate(1, 1)" fill="#D70000" fill-rule="nonzero">
            <path d="M14.5693546,18.9693546 C14.4693546,18.9693546 14.2693546,18.9693546 14.1693546,18.8693546 C13.9693546,18.6693546 13.9693546,18.3693546 14.1693546,18.1693546 L18.1693546,14.1693546 C18.3693546,13.9693546 18.6693546,13.9693546 18.8693546,14.1693546 C19.0693546,14.3693546 19.0693546,14.6693546 18.8693546,14.8693546 L14.8693546,18.8693546 C14.8693546,18.8693546 14.6693546,18.9693546 14.5693546,18.9693546 Z" id="Path"></path>
            <path d="M12.5693546,18.9693546 C9.06935456,18.9693546 5.36935456,17.4693546 2.76935456,14.8693546 C-0.730645438,11.3693546 -0.930645438,5.56935456 2.26935456,2.26935456 C5.46935456,-0.930645438 11.3693546,-0.730645438 14.8693546,2.76935456 C17.1693546,5.06935456 18.6693546,8.26935456 18.9693546,11.4693546 C18.9693546,11.7693546 18.7693546,11.9693546 18.5693546,12.0693546 C18.2693546,12.0693546 18.0693546,11.8693546 17.9693546,11.6693546 C17.5693546,8.16935456 15.7693546,5.16935456 14.0693546,3.56935456 C11.1693546,0.369354562 5.86935456,0.0693545624 3.06935456,2.96935456 C0.269354562,5.76935456 0.469354562,11.0693546 3.56935456,14.1693546 C5.96935456,16.5693546 9.36935456,18.0693546 12.6693546,18.0693546 C12.9693546,18.0693546 13.1693546,18.2693546 13.1693546,18.5693546 C13.1693546,18.8693546 12.8693546,18.9693546 12.5693546,18.9693546 Z" id="Path"></path>
            <path d="M18.5693546,18.9693546 L12.5693546,18.9693546 C12.2693546,18.9693546 12.0693546,18.7693546 12.0693546,18.4693546 C12.0693546,18.1693546 12.2693546,17.9693546 12.5693546,17.9693546 L18.0693546,17.9693546 L18.0693546,11.4693546 C18.0693546,11.1693546 18.2693546,10.9693546 18.5693546,10.9693546 C18.8693546,10.9693546 19.0693546,11.1693546 19.0693546,11.4693546 L19.0693546,18.4693546 C19.0693546,18.7693546 18.8693546,18.9693546 18.5693546,18.9693546 Z" id="Path"></path>
            <path d="M27.5693546,29.9693546 C27.5693546,29.9693546 27.5693546,29.9693546 27.5693546,29.9693546 C27.3693546,29.9693546 27.2693546,29.8693546 27.1693546,29.7693546 C22.3693546,24.4693546 16.7693546,18.9693546 15.5693546,18.9693546 C15.2693546,18.9693546 15.0693546,18.7693546 15.0693546,18.4693546 C15.0693546,18.1693546 15.2693546,17.9693546 15.5693546,17.9693546 C17.6693546,17.9693546 25.2693546,26.2693546 27.5693546,28.7693546 L28.8693546,27.4693546 C25.2693546,24.2693546 18.0693546,17.4693546 18.0693546,15.9693546 C18.0693546,15.6693546 18.2693546,15.4693546 18.5693546,15.4693546 C18.8693546,15.4693546 19.0693546,15.6693546 19.0693546,15.9693546 C19.1693546,16.9693546 24.6693546,22.3693546 29.8693546,27.0693546 C29.9693546,27.1693546 30.0693546,27.2693546 30.0693546,27.4693546 C30.0693546,27.5693546 29.9693546,27.7693546 29.9693546,27.8693546 L27.9693546,29.8693546 C27.8693546,29.8693546 27.6693546,29.9693546 27.5693546,29.9693546 Z" id="Path"></path>
            <path d="M14.5693546,14.9693546 C14.4693546,14.9693546 14.2693546,14.9693546 14.1693546,14.8693546 L4.16935456,4.86935456 C4.06935456,4.66935456 4.06935456,4.26935456 4.16935456,4.06935456 C4.36935456,3.96935456 4.76935456,3.96935456 4.96935456,4.06935456 L14.9693546,14.0693546 C15.1693546,14.2693546 15.1693546,14.5693546 14.9693546,14.7693546 C14.8693546,14.8693546 14.6693546,14.9693546 14.5693546,14.9693546 Z" id="Path"></path>
            <path d="M15.5693546,10.9693546 C15.4693546,10.9693546 15.2693546,10.9693546 15.1693546,10.8693546 L7.66935456,3.36935456 C7.46935456,3.16935456 7.46935456,2.86935456 7.66935456,2.66935456 C7.86935456,2.46935456 8.16935456,2.46935456 8.36935456,2.66935456 L15.8693546,10.1693546 C16.0693546,10.3693546 16.0693546,10.6693546 15.8693546,10.8693546 C15.8693546,10.8693546 15.6693546,10.9693546 15.5693546,10.9693546 Z" id="Path"></path>
            <path d="M10.5693546,15.9693546 C10.4693546,15.9693546 10.2693546,15.9693546 10.1693546,15.8693546 L2.66935456,8.36935456 C2.46935456,8.16935456 2.46935456,7.86935456 2.66935456,7.66935456 C2.86935456,7.46935456 3.16935456,7.46935456 3.36935456,7.66935456 L10.8693546,15.1693546 C11.0693546,15.3693546 11.0693546,15.6693546 10.8693546,15.8693546 C10.8693546,15.8693546 10.6693546,15.9693546 10.5693546,15.9693546 Z" id="Path"></path>
            <path d="M3.06935456,10.9693546 C2.96935456,10.9693546 2.76935456,10.9693546 2.66935456,10.8693546 C2.46935456,10.6693546 2.46935456,10.3693546 2.66935456,10.1693546 L10.1693546,2.66935456 C10.3693546,2.46935456 10.6693546,2.46935456 10.8693546,2.66935456 C11.0693546,2.86935456 11.0693546,3.16935456 10.8693546,3.36935456 L3.36935456,10.8693546 C3.36935456,10.8693546 3.16935456,10.9693546 3.06935456,10.9693546 Z" id="Path"></path>
            <path d="M8.06935456,15.9693546 C7.96935456,15.9693546 7.76935456,15.9693546 7.66935456,15.8693546 C7.46935456,15.6693546 7.46935456,15.3693546 7.66935456,15.1693546 L15.1693546,7.66935456 C15.3693546,7.46935456 15.6693546,7.46935456 15.8693546,7.66935456 C16.0693546,7.86935456 16.0693546,8.16935456 15.8693546,8.36935456 L8.36935456,15.8693546 C8.36935456,15.8693546 8.16935456,15.9693546 8.06935456,15.9693546 Z" id="Path"></path>
            <path d="M5.56935456,13.4693546 C5.46935456,13.4693546 5.26935456,13.4693546 5.16935456,13.3693546 C4.96935456,13.1693546 4.96935456,12.8693546 5.16935456,12.6693546 L12.6693546,5.16935456 C12.8693546,4.96935456 13.1693546,4.96935456 13.3693546,5.16935456 C13.5693546,5.36935456 13.5693546,5.66935456 13.3693546,5.86935456 L5.86935456,13.3693546 C5.86935456,13.3693546 5.66935456,13.4693546 5.56935456,13.4693546 Z" id="Path"></path>
            <path d="M4.56935456,29.9693546 C3.56935456,29.9693546 2.56935456,29.6693546 1.76935456,28.9693546 C1.66935456,28.8693546 1.56935456,28.7693546 1.56935456,28.5693546 C1.56935456,28.3693546 1.66935456,28.2693546 1.76935456,28.1693546 C2.56935456,27.4693546 3.06935456,26.4693546 3.06935456,25.4693546 C3.06935456,24.4693546 2.56935456,23.4693546 1.76935456,22.7693546 C1.66935456,22.6693546 1.56935456,22.5693546 1.56935456,22.3693546 C1.56935456,22.1693546 1.66935456,22.0693546 1.76935456,21.9693546 C3.36935456,20.6693546 5.76935456,20.6693546 7.36935456,21.9693546 C7.46935456,22.0693546 7.56935456,22.1693546 7.56935456,22.3693546 C7.56935456,22.5693546 7.46935456,22.6693546 7.36935456,22.7693546 C6.56935456,23.4693546 6.06935456,24.4693546 6.06935456,25.4693546 C6.06935456,26.4693546 6.56935456,27.4693546 7.36935456,28.1693546 C7.46935456,28.2693546 7.56935456,28.3693546 7.56935456,28.5693546 C7.56935456,28.7693546 7.46935456,28.8693546 7.36935456,28.9693546 C6.56935456,29.5693546 5.56935456,29.9693546 4.56935456,29.9693546 Z M2.86935456,28.4693546 C3.86935456,29.0693546 5.26935456,29.0693546 6.26935456,28.4693546 C5.46935456,27.6693546 5.06935456,26.5693546 5.06935456,25.4693546 C5.06935456,24.3693546 5.46935456,23.2693546 6.26935456,22.4693546 C5.26935456,21.8693546 3.86935456,21.8693546 2.86935456,22.4693546 C3.66935456,23.2693546 4.06935456,24.3693546 4.06935456,25.4693546 C4.06935456,26.5693546 3.66935456,27.6693546 2.86935456,28.4693546 Z" id="Shape"></path>
            <path d="M4.56935456,29.9693546 C2.06935456,29.9693546 0.0693545624,27.9693546 0.0693545624,25.4693546 C0.0693545624,22.9693546 2.06935456,20.9693546 4.56935456,20.9693546 C7.06935456,20.9693546 9.06935456,22.9693546 9.06935456,25.4693546 C9.06935456,27.9693546 7.06935456,29.9693546 4.56935456,29.9693546 Z M4.56935456,21.9693546 C2.66935456,21.9693546 1.06935456,23.5693546 1.06935456,25.4693546 C1.06935456,27.3693546 2.66935456,28.9693546 4.56935456,28.9693546 C6.46935456,28.9693546 8.06935456,27.3693546 8.06935456,25.4693546 C8.06935456,23.5693546 6.46935456,21.9693546 4.56935456,21.9693546 Z" id="Shape"></path>
        </g>
    </g>
</svg>