<?xml version="1.0" encoding="UTF-8"?>
<svg width="32px" height="32px" viewBox="0 0 32 32" version="1.1" xmlns="http://www.w3.org/2000/svg" xmlns:xlink="http://www.w3.org/1999/xlink">
    <title>ico 32 / volley-ball</title>
    <g id="ico-32-/-volley-ball" stroke="none" stroke-width="1" fill="none" fill-rule="evenodd">
        <g id="volley-ball" transform="translate(1, 2)" fill="#D70000" fill-rule="nonzero">
            <path d="M11.5,28.5 C11.3,28.5 11.1,28.4 11,28.2 C9.5,24.6 9.4,18.1 10.5,15.9 C10.7,15.4 11,15.1 11.4,15 C14.8,14 20.2,9.2 20.2,9.1 C20.3,9 20.5,8.9 20.7,9 C20.9,9.1 26.5,10.8 29,14.7 C29.1,14.9 29.1,15.2 28.8,15.4 C28.6,15.5 28.3,15.5 28.1,15.2 C26.1,12 21.8,10.4 20.6,10 C19.5,10.9 14.9,14.9 11.6,15.9 C10.8,16.3 10.1,23.4 11.9,27.7 C12,28 11.9,28.2 11.6,28.4 C11.6,28.5 11.6,28.5 11.5,28.5 Z" id="Path"></path>
            <path d="M10.5,21 C10.2,21 10,20.8 10,20.5 C10,20.2 10.2,20 10.5,20 C13.3,20 23.8,13.7 24,11.5 C24,11.2 24.3,11 24.5,11.1 C24.8,11.1 25,11.4 24.9,11.6 C24.7,14.6 13.4,21 10.5,21 Z" id="Path"></path>
            <path d="M11,25 C10.7,25 10.5,24.8 10.5,24.5 C10.5,24.2 10.7,24 11,24 C12,24 23.7,21.6 27,13.8 C27.1,13.5 27.4,13.4 27.7,13.5 C28,13.6 28.1,13.9 28,14.2 C24.4,22.5 12.2,25 11,25 Z" id="Path"></path>
            <path d="M20.5,10 C20.2,10 20,9.8 20,9.5 C20,6.8 16.1,1.3 16.1,1.3 C15.9,1.1 16,0.8 16.2,0.6 C16.4,0.4 16.7,0.5 16.9,0.7 C17.1,0.9 21,6.5 21,9.5 C21,9.8 20.8,10 20.5,10 Z" id="Path"></path>
            <path d="M27,9 C26.9,9 26.9,9 26.8,9 C25.4,8.5 21.4,7 20,7 C19.7,7 19.5,6.8 19.5,6.5 C19.5,6.2 19.7,6 20,6 C21.9,6 27,8 27.2,8 C27.5,8.1 27.6,8.4 27.5,8.6 C27.4,8.9 27.2,9 27,9 Z" id="Path"></path>
            <path d="M11.5,16 C11.4,16 11.4,16 11.3,16 C7.8,14.7 2.6,8.7 2.5,6.8 C2.5,6.5 2.7,6.3 3,6.3 C3.2,6.2 3.5,6.4 3.5,6.7 C3.6,8 8.3,13.8 11.7,15 C12,15.1 12.1,15.4 12,15.6 C11.9,15.9 11.7,16 11.5,16 Z" id="Path"></path>
            <path d="M1,18.5 C1,18.5 1,18.5 1,18.5 C0.7,18.5 0.5,18.2 0.5,18 C0.7,16.1 2.1,12.1 4.1,9.3 C4.3,9.1 4.6,9 4.8,9.2 C5,9.4 5.1,9.7 4.9,9.9 C3.1,12.5 1.7,16.2 1.5,18 C1.5,18.3 1.3,18.5 1,18.5 Z" id="Path"></path>
            <path d="M5.5,25.5 C5.5,25.5 5.5,25.5 5.5,25.5 C5.2,25.5 5,25.2 5,25 C5.1,23.2 5.8,14 7.1,12.7 C7.3,12.5 7.6,12.5 7.8,12.7 C8,12.9 8,13.2 7.8,13.4 C7,14.2 6.2,20.7 5.9,25.1 C6,25.3 5.8,25.5 5.5,25.5 Z" id="Path"></path>
            <path d="M18,11.6 C17.7,11.6 17.5,11.4 17.5,11.1 C17.5,9.8 12.4,2.6 11.1,1.3 C10.9,1.1 10.9,0.8 11.1,0.6 C11.3,0.4 11.6,0.4 11.8,0.6 C12.9,1.7 18.4,9.3 18.4,11.1 C18.5,11.4 18.3,11.6 18,11.6 C18,11.6 18,11.6 18,11.6 Z" id="Path"></path>
            <path d="M14.9,13.5 C14.8,13.5 14.6,13.4 14.5,13.3 C14.4,13.2 7,5.2 5.8,3.9 C5.6,3.8 5.6,3.5 5.8,3.3 C6,3.1 6.3,3.1 6.5,3.3 C7.7,4.5 15,12.4 15.3,12.7 C15.5,12.9 15.5,13.2 15.3,13.4 C15.1,13.5 15,13.5 14.9,13.5 Z" id="Path"></path>
            <path d="M14.5,29 C6.5,29 0,22.5 0,14.5 C0,6.5 6.5,0 14.5,0 C22.5,0 29,6.5 29,14.5 C29,22.5 22.5,29 14.5,29 Z M14.5,1 C7.1,1 1,7.1 1,14.5 C1,21.9 7.1,28 14.5,28 C21.9,28 28,21.9 28,14.5 C28,7.1 21.9,1 14.5,1 Z" id="Shape"></path>
        </g>
    </g>
</svg>