<svg width="32" height="32" viewBox="0 0 32 32" xmlns="http://www.w3.org/2000/svg"><g fill="#D70000" fill-rule="nonzero"><path d="M7.5 31c-.2 0-.3-.1-.4-.2C5.6 28.3 4 25.2 4 22.5c0-1.2.7-2.7 1.3-4.3.8-1.8 1.7-3.9 1.7-5.7 0-.3.2-.5.5-.5s.5.2.5.5c0 2-.9 4.2-1.7 6.1-.7 1.5-1.3 2.9-1.3 3.9 0 2.3 1.5 5.3 2.7 7.4 1.3-.4 1.7-.3 2.6-.2.8.1 1.9.3 4.7.3 3.2 0 5.2-.3 7-.5 1.6-.2 3.2-.5 5.5-.5.3 0 .5.2.5.5s-.2.5-.5.5c-2.2 0-3.7.2-5.3.4-1.9.3-3.9.6-7.2.6-2.8 0-4.1-.2-4.8-.3-.8-.1-1-.2-2.6.3h-.1z"/><path d="M11.5 23c-.1 0-.3 0-.4-.1-.2-.2-.2-.5 0-.7l.1-.1c.6-.6.9-1.8.8-3.2-.1-1.3-.4-2.5-.9-3-.2-.2-.2-.5 0-.7.2-.2.5-.2.7 0 .9.9 1.4 3.6 1 5.7 1.6-.9 4-1.4 7.1.5 1.5-1.6 4.7-3.6 7.9-1.2.2.2.3.5.1.7-.2.2-.5.3-.7.1-3.5-2.5-6.7 1.3-6.8 1.4-.2.2-.5.2-.7.1-4.1-2.9-6.9-.5-7.8.3l-.1.1c0 .1-.2.1-.3.1zM13.5 8c-.3 0-.5-.2-.5-.5s.2-.5.5-.5.5.2.5.5-.2.5-.5.5z"/><path d="M13.5 10C12.1 10 11 8.9 11 7.5S12.1 5 13.5 5 16 6.1 16 7.5 14.9 10 13.5 10zm0-4c-.8 0-1.5.7-1.5 1.5S12.7 9 13.5 9 15 8.3 15 7.5 14.3 6 13.5 6z"/><path d="M13.5 14C9.9 14 7 11.1 7 7.5S9.9 1 13.5 1 20 3.9 20 7.5 17.1 14 13.5 14zm0-12C10.5 2 8 4.5 8 7.5s2.5 5.5 5.5 5.5S19 10.5 19 7.5 16.5 2 13.5 2z"/></g></svg>