<svg width="32" height="32" viewBox="0 0 32 32" xmlns="http://www.w3.org/2000/svg"><path d="M27.979 5.999H26V5c0-1.103-.897-2-2-2s-2 .897-2 2v1H10V5c0-1.103-.897-2-2-2s-2 .897-2 2v.999H4.022c-1.666 0-3.021 1.371-3.021 3.056v3.44L1 12.5l.001.005v14.439C1.001 28.629 2.356 30 4.022 30h23.957C29.645 30 31 28.629 31 26.944V9.055c0-1.685-1.355-3.056-3.021-3.056zM23 5a1.001 1.001 0 012 0v3a1.001 1.001 0 01-2 0V5zM7 6.504l.001-.005L7 6.494V5a1.001 1.001 0 012 0v3a1.001 1.001 0 01-2 0V6.504zm23 20.44C30 28.078 29.093 29 27.979 29H4.022c-1.114 0-2.021-.923-2.021-2.056V13H30v13.944zM30 12H2.001V9.055c0-1.134.907-2.056 2.021-2.056H6V8c0 1.103.897 2 2 2s2-.897 2-2V7h12v1c0 1.103.897 2 2 2s2-.897 2-2V6.999h1.979c1.114 0 2.021.923 2.021 2.056V12zM15.63 25.836a.501.501 0 00.742.001c.117-.129 2.873-3.165 3.771-4.264.561-.686.858-1.477.858-2.287 0-1.812-1.365-3.286-3.044-3.286a2.9 2.9 0 00-1.956.769A2.9 2.9 0 0014.045 16c-1.679 0-3.044 1.474-3.044 3.286 0 .81.296 1.6.858 2.286.898 1.099 3.654 4.136 3.771 4.264zM14.044 17c.6 0 1.168.295 1.557.809.19.249.608.249.797 0 .39-.514.958-.809 1.558-.809C19.083 17 20 18.026 20 19.286c0 .728-.344 1.3-.632 1.653-.69.843-2.567 2.929-3.368 3.816-.801-.886-2.678-2.973-3.368-3.816-.288-.352-.632-.925-.632-1.653 0-1.261.917-2.286 2.044-2.286z" fill="#000" fill-rule="nonzero"/></svg>