<svg width="55" height="25" viewBox="0 0 55 25" xmlns="http://www.w3.org/2000/svg"><g fill="none" fill-rule="evenodd"><path d="M19.731 20.478l4.159-4.87a8.268 8.268 0 01-1.964.14 8.347 8.347 0 01-5.234-2.206 15.42 15.42 0 004.566-2.62 15.261 15.261 0 01-8.967 1.716 18.31 18.31 0 01-7.906-3.583 15.205 15.205 0 008.589-.3A15.209 15.209 0 015.81 7.89 15.501 15.501 0 01.266 4.32C.175 4.144.086 3.97 0 3.792h25.167C25.674 1.89 25.416.075 27.5 0c2.084.075 1.826 1.89 2.333 3.793H55c-.085.178-.175.352-.266.526a15.501 15.501 0 01-5.544 3.57 15.209 15.209 0 01-7.164.866 15.205 15.205 0 008.59.3 18.31 18.31 0 01-7.907 3.583 15.261 15.261 0 01-8.968-1.717 15.42 15.42 0 004.567 2.621 8.347 8.347 0 01-5.234 2.206 8.268 8.268 0 01-1.964-.14l4.159 4.87L27.5 25l-7.769-4.522z" fill="#D70000" fill-rule="nonzero"/></g></svg>