<svg width="32" height="32" viewBox="0 0 32 32" xmlns="http://www.w3.org/2000/svg"><g fill="#000" fill-rule="nonzero"><path d="M15.5 23c-.2 0-.4-.1-.5-.3l-4.7-12.2-4.5 5.3c0 .1-.2.2-.3.2h-4c-.3 0-.5-.2-.5-.5s.2-.5.5-.5h3.8l4.9-5.8c0-.2.2-.2.4-.2s.3.1.4.3l4.3 11.3.7-4.2c0-.2.2-.4.5-.4h.7l2.9-6.7c0-.2.2-.3.4-.3s.4.1.5.3l4.5 11.6 1.6-5.6c.1-.2.3-.4.5-.4h2c.3 0 .5.2.5.5s-.3.6-.6.6h-1.6L26 22.6c-.1.2-.3.4-.5.4s-.4-.1-.5-.3l-4.5-11.9-2.5 5.9c-.1.2-.3.3-.5.3h-.6l-.9 5.6c0 .2-.2.4-.5.4z"/><path d="M28.5 14c-.1 0-.2 0-.2-.1-.2-.1-.3-.4-.2-.7.4-.9.9-2.2.9-3.3 0-3.4-2.9-6-6.5-6-3.5 0-6.5 3-6.5 6.5 0 .3-.2.5-.5.5s-.5-.2-.5-.5C15 7 12 4 8.5 4 4.9 4 2 6.6 2 10c0 1.1 0 2 .4 2.8.1.2 0 .5-.2.7-.2.1-.5 0-.7-.2C1 12.1 1 11.1 1 10c0-3.9 3.3-7 7.5-7 3.1 0 5.9 2.1 7 4.9C16.6 5 19.4 3 22.5 3c4.2 0 7.5 3.1 7.5 7 0 1.2-.5 2.7-1.1 3.7 0 .2-.2.3-.4.3zM15.5 29c-.1 0-.3-.1-.4-.2l-9-10c-.2-.2-.2-.5 0-.7.2-.2.5-.2.7 0l8.6 9.6 6.6-7.6c.2-.2.5-.2.7 0 .2.2.2.5 0 .7l-7 8c.1.1-.1.2-.2.2z"/></g></svg>