<svg width="32" height="32" viewBox="0 0 32 32" xmlns="http://www.w3.org/2000/svg"><g fill="#D70000" fill-rule="nonzero"><path d="M16.5 4c-.3 0-.5-.2-.5-.5v-1c0-.3-.2-.5-.5-.5s-.5.2-.5.5v1c0 .3-.2.5-.5.5s-.5-.2-.5-.5v-1c0-.8.7-1.5 1.5-1.5s1.5.7 1.5 1.5v1c0 .3-.2.5-.5.5z"/><path d="M18.5 8c-.3 0-.5-.2-.5-.5V4h-5v3.5c0 .3-.2.5-.5.5s-.5-.2-.5-.5v-4c0-.3.2-.5.5-.5h6c.3 0 .5.2.5.5v4c0 .3-.2.5-.5.5z"/><path d="M19.5 7h-1c-.3 0-.5-.2-.5-.5s.2-.5.5-.5h1c.8 0 1.5-.7 1.5-1.5S20.3 3 19.5 3h-3c-.3 0-.5-.2-.5-.5s.2-.5.5-.5h3C20.9 2 22 3.1 22 4.5S20.9 7 19.5 7zM18 31h-5c-2.2 0-4-2-4-4.5V20c0-.2.1-.3.2-.4.5-.4.8-1 .8-1.6 0-.6-.3-1.2-.8-1.6-.1-.1-.2-.2-.2-.4v-4.5C9 9 10.8 7 13 7h5.5c2.1 0 3.5 1.8 3.5 4.5V16c0 .2-.1.3-.2.4-.5.4-.8 1-.8 1.6 0 .6.3 1.2.8 1.6.1.1.2.2.2.4v6.5c0 2.5-1.8 4.5-4 4.5zm-8-10.8v6.3c0 1.7 1.1 3.5 3 3.5h5c1.9 0 3-1.8 3-3.5v-6.3c-.6-.6-1-1.4-1-2.2 0-.8.4-1.7 1-2.2v-4.3c0-1.7-.7-3.5-2.5-3.5H13c-1.9 0-3 1.8-3 3.5v4.3c.6.6 1 1.4 1 2.2 0 .8-.4 1.7-1 2.2z"/><path d="M13 29c-1.2 0-2-1.3-2-2.5v-5.7c0-.1 0-.2.1-.3.6-.7.9-1.6.9-2.5 0-.9-.3-1.8-.9-2.5-.1-.1-.1-.2-.1-.3v-3.7c0-1.2.8-2.5 2-2.5.3 0 .5.2.5.5s-.2.5-.5.5c-.6 0-1 .8-1 1.5V15c.7.9 1 1.9 1 3s-.3 2.1-1 3v5.5c0 .7.4 1.5 1 1.5.3 0 .5.2.5.5s-.2.5-.5.5z"/></g></svg>