<svg fill="#d70000" xmlns="http://www.w3.org/2000/svg" width="64" height="76" viewBox="0 0 600 499"><path d="M392.476 312.215l-44.807-118.284c-.033-.087-.081-.165-.123-.247-.324-1.796-1.361-3.498-2.876-4.457l-29.211-18.465-6.526-14.361c-.711-1.561-2.472-2.694-4.186-2.694H260.94c-.693 0-1.393.192-2.029.518-.042.007-.085.006-.126.016a2.29 2.29 0 00-1.642 1.499c-.146.211-.283.43-.389.663l-6.527 14.358-29.206 18.464c-1.507.951-2.539 2.635-2.868 4.434-.048.088-.1.173-.135.27l-44.822 118.325a5.361 5.361 0 003.246 6.84l32.672 11.625a5.334 5.334 0 004.093-.208 5.327 5.327 0 002.744-3.041l21.206-59.598c1.483 2.851 3.925 6.513 7.428 8.679l-.011 9.875-4.398 5.677c-.542.643-3.121 4.064-3.749 11.605-.486 5.828-2.007 19.861-2.201 21.656a2.893 2.893 0 00.34 2.102c.92 1.594 3.356 5.826 48.278 5.826 44.921 0 47.359-4.232 48.277-5.826a2.884 2.884 0 00.341-2.102c-.193-1.795-1.716-15.828-2.2-21.654-.629-7.543-3.206-10.963-3.748-11.605l-4.398-5.679-.012-9.875c3.502-2.166 5.943-5.829 7.428-8.68l21.205 59.601a5.331 5.331 0 002.745 3.039 5.313 5.313 0 004.091.208l32.675-11.625c2.779-.992 4.234-4.059 3.228-6.879zm-110.191-109.63c-12.399-19.433-18.308-37.921-20.114-44.291l40.786-.007c-2.254 5.838-8.625 21.418-20.672 44.298zm-58.813-9.48l29.788-18.831c.377-.239.677-.583.86-.99l4.657-10.261c2.745 8.814 9.099 26.11 21.048 44.191a667.22 667.22 0 01-5.295 9.664c-18.643 33.369-30.426 44.32-34.105 47.207a24.449 24.449 0 01-.672-1.675l-17.119-67.276c-.15-.649.273-1.673.838-2.029zM211.63 325.932a.764.764 0 01-.394.438.739.739 0 01-.582.031l-32.674-11.627c-.397-.141-.605-.58-.48-.936l42.235-111.494 14.959 58.789c-.01.027-.027.052-.038.08l-23.026 64.719zm58.086-48.447c-.027.254-.078.501-.078.763v5.092c0 .541.062 1.068.171 1.579h-20.646l.007-7.434h20.546zm46.802 0l.01 7.434h-20.601a7.622 7.622 0 00.169-1.579v-5.092c0-.262-.05-.509-.077-.763h20.499zm-23.303 11.769l17.592 23.699c.314.453.246 1.289-.136 1.686l-6.928 7.158-17.479-28.37 1.593-2.479h.631c1.794 0 3.423-.65 4.727-1.694zm-20.234.382a7.568 7.568 0 004.266 1.313h5.157l-17.396 27.05c-.056.096-.107.133-.104.137-.016 0-.075-.021-.163-.098l-7.729-6.734a.873.873 0 01-.11-1.15l16.079-20.518zm18.528-6.296a3.024 3.024 0 01-3.021 3.021h-11.241a3.024 3.024 0 01-3.022-3.021v-5.092a3.025 3.025 0 013.022-3.022h11.241a3.024 3.024 0 013.021 3.022v5.092zm33.18 20.752c.456 5.445 1.797 17.928 2.148 21.178-1.799.906-9.88 3.436-43.994 3.436-34.115 0-42.195-2.529-43.994-3.436.351-3.25 1.693-15.732 2.148-21.18.531-6.391 2.664-9.004 2.662-9.004.038-.041.073-.084.105-.127l4.225-5.453h19.267l-13.964 17.816c-1.751 2.23-1.436 5.564.703 7.436l7.732 6.734c.911.799 2.042 1.229 3.181 1.229.241 0 .479-.02.719-.057a4.724 4.724 0 003.285-2.262l14.601-22.697 16.302 26.457c.749 1.311 1.973 2.16 3.354 2.332.173.021.347.033.519.033 1.207 0 2.389-.52 3.307-1.473l6.978-7.232c1.887-1.959 2.152-5.242.563-7.541l-15.423-20.775h18.59l4.303 5.551c.018.025 2.152 2.638 2.683 9.035zm-6.459-31.194h-24.342a7.581 7.581 0 00-5.4-2.259h-11.241a7.586 7.586 0 00-5.402 2.259h-24.389c-1.979-1.063-3.591-2.886-4.816-4.733 3.85-2.819 16.175-13.753 35.896-49.05 15.818-28.312 24.443-48.462 27.896-57.133l5.137 11.302c.184.407.483.751.861.99l29.789 18.831c.564.356.985 1.38.851 1.976l-17.134 67.329c-.267.758-2.889 7.905-7.706 10.488zm69.478 41.875L355.032 326.4a.767.767 0 01-.975-.467l-23.027-64.721c-.011-.028-.027-.052-.036-.079l14.957-58.791 42.22 111.454a.765.765 0 01-.463.977z"/></svg>