<svg width="178" height="50" viewBox="0 0 178 50" xmlns="http://www.w3.org/2000/svg"><g fill-rule="nonzero" fill="none"><g fill="#000"><path d="M74.508 22.612V10.737H69.78V6.898h14.026v3.839h-4.883v11.875zM90.362 22.837a7.026 7.026 0 01-1.672-.191 5.722 5.722 0 01-1.427-.55 4.574 4.574 0 01-1.138-.887 6.6 6.6 0 01-.87-1.178l2.476-2.582c.163.24.323.453.48.64.155.187.315.337.479.449.163.112.338.202.524.27.186.066.375.1.568.1.283 0 .532-.067.747-.202.216-.135.383-.322.502-.561.119-.24.178-.524.178-.853v-6.578h-2.876V6.898h9.544v3.816h-2.409v7.117c0 .793-.13 1.496-.39 2.11a4.59 4.59 0 01-1.081 1.571c-.461.434-1 .764-1.617.988a5.86 5.86 0 01-2.018.337zM114.288 22.837c-1.114 0-2.107-.127-2.976-.382a7.443 7.443 0 01-2.297-1.1 9.238 9.238 0 01-1.773-1.684l2.587-2.94c.743.972 1.509 1.62 2.297 1.941.787.322 1.553.483 2.296.483.327 0 .625-.034.892-.1.268-.068.472-.18.613-.338a.857.857 0 00.212-.595.84.84 0 00-.178-.538 1.561 1.561 0 00-.49-.393 4.939 4.939 0 00-.692-.303 5.747 5.747 0 00-.758-.214 17.901 17.901 0 01-.736-.168c-.877-.194-1.643-.441-2.297-.74-.654-.3-1.2-.655-1.639-1.067a3.95 3.95 0 01-.98-1.426c-.216-.538-.324-1.144-.324-1.818 0-.733.17-1.407.513-2.02a5.213 5.213 0 011.36-1.583 6.127 6.127 0 011.951-1.01 7.63 7.63 0 012.308-.348c1.1 0 2.037.108 2.81.325.773.217 1.423.528 1.95.932.528.404.986.876 1.372 1.414l-2.631 2.56a4.702 4.702 0 00-1.015-.854 4.572 4.572 0 00-1.126-.505 4.217 4.217 0 00-1.182-.168 3.72 3.72 0 00-.97.112c-.275.075-.486.184-.635.326-.149.142-.223.333-.223.572 0 .21.082.393.245.55.164.157.372.288.625.393.252.105.524.19.813.258.29.068.554.124.792.169.818.164 1.565.377 2.241.64a6.865 6.865 0 011.773.987c.505.397.892.88 1.16 1.448.267.569.4 1.235.4 1.998 0 1.122-.278 2.07-.835 2.84-.558.77-1.309 1.354-2.253 1.75-.944.397-2.01.596-3.2.596zM128.604 22.837c-1.263 0-2.393-.27-3.39-.808-.995-.54-1.776-1.273-2.34-2.2-.565-.928-.848-1.998-.848-3.21 0-1.213.283-2.283.847-3.21.565-.929 1.346-1.662 2.342-2.2.996-.54 2.126-.809 3.39-.809 1.263 0 2.389.27 3.377.808a6.073 6.073 0 012.33 2.2c.566.928.848 1.998.848 3.21 0 1.213-.282 2.283-.847 3.21a6.073 6.073 0 01-2.33 2.2c-.99.54-2.115.809-3.379.809zm0-3.525c.446 0 .851-.116 1.215-.348.365-.232.647-.553.848-.965.2-.412.3-.872.3-1.38 0-.54-.1-1.01-.3-1.415a2.338 2.338 0 00-.848-.954 2.215 2.215 0 00-1.215-.348 2.2 2.2 0 00-1.226.348c-.357.232-.64.554-.848.965-.208.412-.312.88-.312 1.403 0 .51.104.97.312 1.381.209.412.491.733.848.965a2.2 2.2 0 001.226.348zM141.47 19.2l-1.873-2.784 5.508-5.77h5.419L141.47 19.2zm-4.058 3.412V6h4.17v16.612h-4.17zm8.095 0l-4.059-5.567 2.921-2.155 5.932 7.722h-4.794zM157.682 22.837c-1.264 0-2.394-.27-3.39-.808-.996-.54-1.776-1.273-2.341-2.2-.565-.928-.847-1.998-.847-3.21 0-1.213.282-2.283.847-3.21.565-.929 1.345-1.662 2.341-2.2.996-.54 2.126-.809 3.39-.809 1.263 0 2.39.27 3.378.808a6.073 6.073 0 012.33 2.2c.565.928.847 1.998.847 3.21 0 1.213-.282 2.283-.847 3.21a6.073 6.073 0 01-2.33 2.2c-.989.54-2.115.809-3.378.809zm0-3.525c.446 0 .85-.116 1.215-.348.364-.232.647-.553.847-.965.2-.412.301-.872.301-1.38 0-.54-.1-1.01-.3-1.415a2.338 2.338 0 00-.848-.954 2.215 2.215 0 00-1.215-.348 2.2 2.2 0 00-1.227.348c-.357.232-.639.554-.847.965-.208.412-.312.88-.312 1.403 0 .51.104.97.312 1.381.208.412.49.733.847.965a2.2 2.2 0 001.227.348zM166.512 22.612V6h4.147v16.612zM75.221 45.061L69 29.347h4.46l2.698 7.318c.178.464.327.865.446 1.201.119.337.223.651.312.943.09.292.178.599.268.92.089.322.178.708.267 1.157h-.736a25.7 25.7 0 01.38-1.482c.118-.404.248-.808.39-1.212.14-.404.323-.913.546-1.527l2.653-7.318h4.349L78.767 45.06H75.22zm28.72-11.965v11.628c0 1.243-.196 2.242-.59 2.997a3.545 3.545 0 01-1.762 1.65c-.78.345-1.757.517-2.932.517l-1.583-3.233c.728 0 1.29-.082 1.684-.247.393-.164.665-.456.813-.875.15-.42.223-1.018.223-1.796V33.096h4.148zm-12.263-.247c.862 0 1.646.15 2.352.449a5.26 5.26 0 011.829 1.28 5.766 5.766 0 011.182 1.953c.275.748.397 1.571.367 2.469l-.022.943h-7.715l.07.168a2.481 2.481 0 001.19 1.201c.483.24 1.074.36 1.772.36.461 0 .866-.06 1.216-.18s.724-.33 1.126-.629l1.917 2.717a7.767 7.767 0 01-1.572.999 7.383 7.383 0 01-1.572.538 7.486 7.486 0 01-1.583.169c-1.353 0-2.52-.266-3.5-.797a5.67 5.67 0 01-2.275-2.2c-.535-.936-.803-2.002-.803-3.2 0-.897.149-1.728.446-2.491a5.999 5.999 0 011.249-1.987 5.556 5.556 0 011.906-1.302c.736-.307 1.543-.46 2.42-.46zm.089 3.39c-.506 0-.926.1-1.26.303-.334.202-.59.49-.77.864-.05.107-.094.22-.13.34l-.03.108h4.084l-.006-.138a1.44 1.44 0 00-.25-.703 1.7 1.7 0 00-.68-.572 2.2 2.2 0 00-.958-.202zm10.168-9.474c.743 0 1.327.176 1.75.528.424.352.636.857.636 1.515 0 .599-.216 1.085-.647 1.46-.43.373-1.01.56-1.739.56-.758 0-1.345-.175-1.762-.527-.416-.352-.624-.85-.624-1.493 0-.598.212-1.089.636-1.47.423-.382 1.007-.573 1.75-.573zM107.108 50V33.096h3.88l.201 2.649-.803-.202c.09-.509.338-.965.747-1.37.409-.404.918-.725 1.528-.965a5.38 5.38 0 011.984-.359c.996 0 1.88.266 2.654.797.773.531 1.382 1.26 1.828 2.189.446.928.67 2.005.67 3.232 0 1.198-.224 2.264-.67 3.2-.446.935-1.063 1.668-1.85 2.2-.788.53-1.688.796-2.699.796a4.975 4.975 0 01-1.906-.37 4.358 4.358 0 01-1.516-1.01 3.002 3.002 0 01-.792-1.448l.936-.315V50h-4.192zm6.355-8.171c.476 0 .885-.113 1.227-.337.342-.225.602-.543.78-.954.179-.412.268-.902.268-1.47 0-.584-.09-1.082-.268-1.494a2.112 2.112 0 00-.78-.954c-.342-.224-.75-.336-1.227-.336-.475 0-.884.108-1.226.325-.342.217-.602.535-.78.954-.179.42-.268.92-.268 1.504 0 .57.09 1.06.268 1.47.178.412.438.73.78.955.342.224.75.337 1.226.337zm8.608 3.232V33.096h3.88l.223 3.928-.87-.673a5.386 5.386 0 01.903-1.785c.409-.531.903-.95 1.483-1.257.58-.307 1.19-.46 1.828-.46.268 0 .52.019.759.056.237.038.46.086.669.146l-1.138 4.625a2.587 2.587 0 00-.69-.281 3.581 3.581 0 00-.96-.124c-.297 0-.565.05-.803.146a1.642 1.642 0 00-.602.416c-.163.18-.29.393-.379.64-.089.246-.133.534-.133.864v5.724h-4.17zm10.658 0V33.096h3.88l.179 2.424-.848.27a3.358 3.358 0 01.87-1.516c.431-.441.944-.789 1.539-1.043a4.713 4.713 0 011.873-.382c.892 0 1.646.183 2.263.55.617.367 1.085.913 1.405 1.639.32.726.48 1.612.48 2.66v7.363h-4.148v-7.026c0-.39-.06-.715-.179-.977a1.263 1.263 0 00-.535-.595 1.544 1.544 0 00-.847-.18c-.253 0-.487.038-.703.113a1.54 1.54 0 00-.568.348 1.575 1.575 0 00-.368.527 1.665 1.665 0 00-.123.651v7.14h-4.17zm14.695 0V33.096h4.148V45.06h-4.148zm2.074-14.232c-.758 0-1.345-.176-1.762-.528-.416-.352-.624-.85-.624-1.493 0-.598.212-1.089.636-1.47.423-.382 1.007-.573 1.75-.573.743 0 1.327.176 1.75.528.424.352.636.857.636 1.515 0 .599-.216 1.085-.647 1.46-.43.373-1.01.56-1.739.56zm10.636 14.457c-1.174 0-2.226-.27-3.155-.808a5.897 5.897 0 01-2.196-2.212c-.535-.935-.803-2.001-.803-3.199 0-1.197.268-2.263.803-3.199a5.897 5.897 0 012.196-2.21c.93-.54 1.981-.809 3.155-.809 1.07 0 2.056.172 2.955.516.9.345 1.617.838 2.152 1.482l-2.252 2.694c-.164-.21-.372-.4-.625-.573a3.21 3.21 0 00-.836-.404 3.325 3.325 0 00-1.014-.146c-.491 0-.922.113-1.294.337a2.253 2.253 0 00-.858.932c-.201.396-.301.85-.301 1.358 0 .509.096.958.29 1.347.193.389.479.703.858.943.38.24.814.359 1.305.359.371 0 .71-.045 1.014-.135.305-.09.58-.217.825-.381.245-.165.457-.36.636-.584l2.252 2.716c-.55.629-1.275 1.115-2.174 1.46-.9.344-1.877.516-2.933.516zm12.688 0c-1.352 0-2.52-.266-3.5-.797a5.67 5.67 0 01-2.275-2.2c-.535-.936-.803-2.002-.803-3.2 0-.897.149-1.728.446-2.491a5.999 5.999 0 011.249-1.987 5.556 5.556 0 011.907-1.302c.735-.307 1.542-.46 2.419-.46.862 0 1.646.15 2.352.449a5.26 5.26 0 011.829 1.28 5.766 5.766 0 011.182 1.953c.275.748.397 1.571.368 2.469l-.023.943h-9.365l-.513-2.088h6.556l-.402.45v-.427c0-.33-.085-.618-.256-.865a1.7 1.7 0 00-.68-.572 2.2 2.2 0 00-.959-.202c-.505 0-.925.1-1.26.303-.334.202-.59.49-.77.864-.177.374-.267.823-.267 1.347 0 .599.123 1.115.368 1.549.246.434.61.77 1.093 1.01s1.074.36 1.773.36c.46 0 .866-.06 1.215-.18.35-.12.725-.33 1.126-.629l1.918 2.717a7.767 7.767 0 01-1.572.999 7.383 7.383 0 01-1.572.538 7.486 7.486 0 01-1.584.169z"/></g><path d="M51.25 7.586H0c.173.355.356.705.541 1.053a31.634 31.634 0 0011.29 7.14 31.495 31.495 0 0014.588 1.73 31.5 31.5 0 01-17.49.601 37.606 37.606 0 0016.1 7.167 31.522 31.522 0 0018.261-3.434 31.546 31.546 0 01-9.298 5.241 17.154 17.154 0 0010.657 4.413c1.37.07 2.706-.04 4-.28l-8.469 9.738L56 50V0c-4.244.15-3.718 3.778-4.75 7.586z" fill="#D70000"/></g></svg>