<svg width="32" height="32" viewBox="0 0 32 32" xmlns="http://www.w3.org/2000/svg"><path d="M25 7.5c0-.827-.673-1.5-1.5-1.5S22 6.673 22 7.5 22.673 9 23.5 9 25 8.327 25 7.5zm-2 0a.5.5 0 111 0 .5.5 0 01-1 0zM27.5 9a.5.5 0 00-.5.5v15.609l-7 1.75V10.5a.486.486 0 00-.108-.296.49.49 0 00-.201-.165l-6.994-2.998c-.014-.006-.029-.002-.043-.007a.483.483 0 00-.136-.022c-.033-.001-.063-.003-.096.002-.014.002-.029-.003-.043.001l-8 2A.5.5 0 004 9.5v17a.498.498 0 00.621.485l7.838-1.959 6.845 2.933a.475.475 0 00.317.026l8-2A.5.5 0 0028 25.5v-16a.5.5 0 00-.5-.5zM12 24.11l-7 1.75V9.891l7-1.75V24.11zm7 2.631l-6-2.571V8.258l6 2.571v15.912zM23.5 15a.5.5 0 00.436-.255C24.25 14.186 27 9.237 27 7.5 27 5.57 25.43 4 23.5 4S20 5.57 20 7.5c0 1.738 2.751 6.686 3.064 7.245A.5.5 0 0023.5 15zm0-10C24.878 5 26 6.122 26 7.5c0 .987-1.368 3.856-2.5 5.961C22.368 11.356 21 8.488 21 7.5 21 6.122 22.122 5 23.5 5z" fill="#D70000" fill-rule="nonzero"/></svg>