<svg width="32" height="32" viewBox="0 0 32 32" xmlns="http://www.w3.org/2000/svg"><g fill="#000" fill-rule="nonzero"><path d="M16 27c-6.1 0-11-3.8-11-8.5 0-.3.2-.5.5-.5h21c.3 0 .5.2.5.5 0 4.7-4.9 8.5-11 8.5zM6 19c.3 3.9 4.7 7 10 7s9.6-3.1 10-7H6z"/><path d="M16 31C7.7 31 1 24.3 1 16S7.7 1 16 1s15 6.7 15 15-6.7 15-15 15zm0-29C8.3 2 2 8.3 2 16s6.3 14 14 14 14-6.3 14-14S23.7 2 16 2z"/><path d="M10.5 13c-.8 0-1.5-.7-1.5-1.5s.7-1.5 1.5-1.5 1.5.7 1.5 1.5-.7 1.5-1.5 1.5zm0-2c-.3 0-.5.2-.5.5s.2.5.5.5.5-.2.5-.5-.2-.5-.5-.5zM21.5 13c-.8 0-1.5-.7-1.5-1.5s.7-1.5 1.5-1.5 1.5.7 1.5 1.5-.7 1.5-1.5 1.5zm0-2c-.3 0-.5.2-.5.5s.2.5.5.5.5-.2.5-.5-.2-.5-.5-.5z"/></g></svg>