<svg width="32" height="32" viewBox="0 0 32 32" xmlns="http://www.w3.org/2000/svg"><g fill="#D70000" fill-rule="nonzero"><path d="M9.5 13c-.2 0-.4-.1-.4-.3l-2-4c-.2-.2-.1-.4.1-.6l5-4c.1-.1.4-.1.5 0l5 2.5.3.3c.1.1 0 .3-.1.4l-3 5c-.1.1-.2.2-.4.2l-5 .5zM8.1 8.6L9.8 12l4.4-.4 2.6-4.3-4.2-2.1-4.5 3.4zM20.5 26c-.1 0-.2 0-.3-.1l-4-3c-.2-.1-.2-.4-.2-.6l2-5.5c.1-.2.2-.3.4-.3l6-.5c.3 0 .5.2.5.4l1 6c0 .2-.1.4-.2.5l-5 3c0 .1-.1.1-.2.1zm-3.4-3.7l3.4 2.6 4.4-2.7-.8-5.2-5.2.4-1.8 4.9zM7.5 28c-.1 0-.2 0-.2-.1-.2-.1-.3-.4-.2-.7L9 23.4l-2.7-5-4.2.6c-.3 0-.5-.2-.6-.4 0-.3.2-.5.4-.6l4.5-.5c.2 0 .4.1.5.3l3 5.5c.1.1.1.3 0 .5l-2 4c0 .1-.2.2-.4.2zM30 13h-.1l-3.5-1c-.1 0-.2-.1-.3-.2l-3-5c-.1-.1-.1-.2-.1-.3V4c0-.3.2-.5.5-.5s.5.2.5.5v2.4l2.8 4.7 3.3.9c.3.1.4.4.3.6 0 .3-.2.4-.4.4z"/><path d="M18.5 17.6c-.1 0-.3-.1-.4-.2l-4-5.1c-.2-.2-.1-.5.1-.7.2-.2.5-.1.7.1l4 5.1c.2.2.1.5-.1.7-.1 0-.2.1-.3.1zM9.5 24c-.2 0-.5-.2-.5-.4 0-.3.2-.6.4-.6l7-1c.3 0 .5.2.6.4 0 .3-.2.5-.4.6l-7.1 1zM19.5 30.5h-.1c-.3-.1-.4-.3-.4-.6l1-4.5c.1-.3.3-.4.6-.4.3.1.4.3.4.6l-1 4.5c-.1.2-.3.4-.5.4zM28.5 23h-3c-.3 0-.5-.2-.5-.5s.2-.5.5-.5h3c.3 0 .5.2.5.5s-.2.5-.5.5zM24.5 17h-.2c-.3-.1-.4-.4-.3-.7l2-5c.1-.3.4-.4.7-.3.3.1.4.4.3.7l-2 5c-.1.2-.3.3-.5.3zM17.5 7.5c-.3 0-.5-.2-.5-.5s.2-.5.5-.5l6-.5c.2 0 .5.2.5.5s-.2.5-.5.5l-6 .5zM6.5 18.5c-.1 0-.2 0-.2-.1-.3-.1-.4-.4-.2-.6l3-5.5c.1-.2.4-.3.7-.2.2.1.3.4.2.7l-3 5.5c-.2.1-.3.2-.5.2zM7.5 9l-3.6-.5c-.3 0-.5-.3-.4-.6 0-.3.3-.5.6-.4l3.5.5c.2 0 .4.3.4.6 0 .2-.3.4-.5.4zM12.5 5c-.3 0-.5-.2-.5-.5V2c0-.3.2-.5.5-.5s.5.2.5.5v2.5c0 .3-.2.5-.5.5z"/><path d="M16 31C7.7 31 1 24.3 1 16S7.7 1 16 1s15 6.7 15 15-6.7 15-15 15zm0-29C8.3 2 2 8.3 2 16s6.3 14 14 14 14-6.3 14-14S23.7 2 16 2z"/></g></svg>