<svg width="32" height="32" viewBox="0 0 32 32" xmlns="http://www.w3.org/2000/svg"><g fill="#D70000" fill-rule="nonzero"><path d="M12.5 23.996c-.1 0-.3 0-.4-.1-.2-.2-.2-.5 0-.7l11-11c.2-.2.5-.2.7 0 .2.2.2.5 0 .7l-11 11c0 .1-.2.1-.3.1z"/><path d="M15.9 25.096c-4.2 0-8.5-2.3-11.4-5.2-4.4-4.5-4.7-11.9-.6-16 4.1-4.1 11.5-3.8 16 .6 3.6 3.6 7 11.9 4.1 16.8-.1.2-.5.3-.7.2-.2-.1-.3-.4-.2-.7 2.7-4.4-.6-12.2-3.9-15.5-4-4-10.8-4.3-14.5-.6-3.7 3.7-3.4 10.5.6 14.5 3.8 3.8 9.9 6.5 15.1 3.9.2-.1.5 0 .7.2.1.2 0 .5-.2.7-1.7.7-3.4 1.1-5 1.1z"/><path d="M27.5 30.996c-.1 0-.3-.1-.4-.2l-8-9c-.2-.2-.2-.5 0-.7l2-2c.2-.2.5-.2.7 0l9 8c.2.2.2.4.1.6-.9 1.7-1.5 2.4-3.2 3.2 0 .1-.1.1-.2.1zm-7.3-9.5l7.4 8.4c1.2-.6 1.6-1.1 2.3-2.3l-8.4-7.4-1.3 1.3zM5.5 30.996c-2.5 0-4.5-2-4.5-4.5s2-4.5 4.5-4.5 4.5 2 4.5 4.5-2 4.5-4.5 4.5zm0-8c-1.9 0-3.5 1.6-3.5 3.5s1.6 3.5 3.5 3.5 3.5-1.6 3.5-3.5-1.6-3.5-3.5-3.5z"/></g></svg>