<svg width="32" height="32" viewBox="0 0 32 32" xmlns="http://www.w3.org/2000/svg"><g fill="#D70000" fill-rule="nonzero"><path d="M15.57 19.97c-.1 0-.3 0-.4-.1-.2-.2-.2-.5 0-.7l4-4c.2-.2.5-.2.7 0 .2.2.2.5 0 .7l-4 4s-.2.1-.3.1zM13.57 19.97c-3.5 0-7.2-1.5-9.8-4.1-3.5-3.5-3.7-9.3-.5-12.6 3.2-3.2 9.1-3 12.6.5 2.3 2.3 3.8 5.5 4.1 8.7 0 .3-.2.5-.4.6-.3 0-.5-.2-.6-.4-.4-3.5-2.2-6.5-3.9-8.1-2.9-3.2-8.2-3.5-11-.6-2.8 2.8-2.6 8.1.5 11.2 2.4 2.4 5.8 3.9 9.1 3.9.3 0 .5.2.5.5s-.3.4-.6.4z"/><path d="M19.57 19.97h-6c-.3 0-.5-.2-.5-.5s.2-.5.5-.5h5.5v-6.5c0-.3.2-.5.5-.5s.5.2.5.5v7c0 .3-.2.5-.5.5z"/><path d="M28.57 30.97c-.2 0-.3-.1-.4-.2-4.8-5.3-10.4-10.8-11.6-10.8-.3 0-.5-.2-.5-.5s.2-.5.5-.5c2.1 0 9.7 8.3 12 10.8l1.3-1.3c-3.6-3.2-10.8-10-10.8-11.5 0-.3.2-.5.5-.5s.5.2.5.5c.1 1 5.6 6.4 10.8 11.1.1.1.2.2.2.4 0 .1-.1.3-.1.4l-2 2c-.1 0-.3.1-.4.1zM15.57 15.97c-.1 0-.3 0-.4-.1l-10-10c-.1-.2-.1-.6 0-.8.2-.1.6-.1.8 0l10 10c.2.2.2.5 0 .7-.1.1-.3.2-.4.2zM16.57 11.97c-.1 0-.3 0-.4-.1l-7.5-7.5c-.2-.2-.2-.5 0-.7.2-.2.5-.2.7 0l7.5 7.5c.2.2.2.5 0 .7 0 0-.2.1-.3.1zM11.57 16.97c-.1 0-.3 0-.4-.1l-7.5-7.5c-.2-.2-.2-.5 0-.7.2-.2.5-.2.7 0l7.5 7.5c.2.2.2.5 0 .7 0 0-.2.1-.3.1z"/><path d="M4.07 11.97c-.1 0-.3 0-.4-.1-.2-.2-.2-.5 0-.7l7.5-7.5c.2-.2.5-.2.7 0 .2.2.2.5 0 .7l-7.5 7.5s-.2.1-.3.1zM9.07 16.97c-.1 0-.3 0-.4-.1-.2-.2-.2-.5 0-.7l7.5-7.5c.2-.2.5-.2.7 0 .2.2.2.5 0 .7l-7.5 7.5s-.2.1-.3.1zM6.57 14.47c-.1 0-.3 0-.4-.1-.2-.2-.2-.5 0-.7l7.5-7.5c.2-.2.5-.2.7 0 .2.2.2.5 0 .7l-7.5 7.5s-.2.1-.3.1zM5.57 30.97c-1 0-2-.3-2.8-1-.1-.1-.2-.2-.2-.4s.1-.3.2-.4c.8-.7 1.3-1.7 1.3-2.7 0-1-.5-2-1.3-2.7-.1-.1-.2-.2-.2-.4s.1-.3.2-.4c1.6-1.3 4-1.3 5.6 0 .1.1.2.2.2.4s-.1.3-.2.4c-.8.7-1.3 1.7-1.3 2.7 0 1 .5 2 1.3 2.7.1.1.2.2.2.4s-.1.3-.2.4c-.8.6-1.8 1-2.8 1zm-1.7-1.5c1 .6 2.4.6 3.4 0-.8-.8-1.2-1.9-1.2-3s.4-2.2 1.2-3c-1-.6-2.4-.6-3.4 0 .8.8 1.2 1.9 1.2 3s-.4 2.2-1.2 3z"/><path d="M5.57 30.97c-2.5 0-4.5-2-4.5-4.5s2-4.5 4.5-4.5 4.5 2 4.5 4.5-2 4.5-4.5 4.5zm0-8c-1.9 0-3.5 1.6-3.5 3.5s1.6 3.5 3.5 3.5 3.5-1.6 3.5-3.5-1.6-3.5-3.5-3.5z"/></g></svg>