<svg width="32" height="32" viewBox="0 0 32 32" xmlns="http://www.w3.org/2000/svg"><g fill="#D70000" fill-rule="nonzero"><path d="M12.5 30.5c-.2 0-.4-.1-.5-.3-1.5-3.6-1.6-10.1-.5-12.3.2-.5.5-.8.9-.9 3.4-1 8.8-5.8 8.8-5.9.1-.1.3-.2.5-.1s5.8 1.8 8.3 5.7c.1.2.1.5-.2.7-.2.1-.5.1-.7-.2-2-3.2-6.3-4.8-7.5-5.2-1.1.9-5.7 4.9-9 5.9-.8.4-1.5 7.5.3 11.8.1.3 0 .5-.3.7 0 .1 0 .1-.1.1z"/><path d="M11.5 23c-.3 0-.5-.2-.5-.5s.2-.5.5-.5c2.8 0 13.3-6.3 13.5-8.5 0-.3.3-.5.5-.4.3 0 .5.3.4.5-.2 3-11.5 9.4-14.4 9.4zM12 27c-.3 0-.5-.2-.5-.5s.2-.5.5-.5c1 0 12.7-2.4 16-10.2.1-.3.4-.4.7-.3.3.1.4.4.3.7C25.4 24.5 13.2 27 12 27zM21.5 12c-.3 0-.5-.2-.5-.5 0-2.7-3.9-8.2-3.9-8.2-.2-.2-.1-.5.1-.7.2-.2.5-.1.7.1.2.2 4.1 5.8 4.1 8.8 0 .3-.2.5-.5.5z"/><path d="M28 11h-.2c-1.4-.5-5.4-2-6.8-2-.3 0-.5-.2-.5-.5s.2-.5.5-.5c1.9 0 7 2 7.2 2 .3.1.4.4.3.6-.1.3-.3.4-.5.4zM12.5 18h-.2c-3.5-1.3-8.7-7.3-8.8-9.2 0-.3.2-.5.5-.5.2-.1.5.1.5.4.1 1.3 4.8 7.1 8.2 8.3.3.1.4.4.3.6-.1.3-.3.4-.5.4z"/><path d="M2 20.5c-.3 0-.5-.3-.5-.5.2-1.9 1.6-5.9 3.6-8.7.2-.2.5-.3.7-.1.2.2.3.5.1.7-1.8 2.6-3.2 6.3-3.4 8.1 0 .3-.2.5-.5.5zM6.5 27.5c-.3 0-.5-.3-.5-.5.1-1.8.8-11 2.1-12.3.2-.2.5-.2.7 0 .2.2.2.5 0 .7-.8.8-1.6 7.3-1.9 11.7.1.2-.1.4-.4.4zM19 13.6c-.3 0-.5-.2-.5-.5 0-1.3-5.1-8.5-6.4-9.8-.2-.2-.2-.5 0-.7.2-.2.5-.2.7 0 1.1 1.1 6.6 8.7 6.6 10.5.1.3-.1.5-.4.5zM15.9 15.5c-.1 0-.3-.1-.4-.2-.1-.1-7.5-8.1-8.7-9.4-.2-.1-.2-.4 0-.6.2-.2.5-.2.7 0 1.2 1.2 8.5 9.1 8.8 9.4.2.2.2.5 0 .7-.2.1-.3.1-.4.1z"/><path d="M15.5 31C7.5 31 1 24.5 1 16.5S7.5 2 15.5 2 30 8.5 30 16.5 23.5 31 15.5 31zm0-28C8.1 3 2 9.1 2 16.5S8.1 30 15.5 30 29 23.9 29 16.5 22.9 3 15.5 3z"/></g></svg>